<?xml version="1.0" standalone="no"?>
<!DOCTYPE svg PUBLIC "-//W3C//DTD SVG 1.1//EN" "http://www.w3.org/Graphics/SVG/1.1/DTD/svg11.dtd" >
<svg>
<metadata>
Created by FontForge 20120731 at Sun Jan 24 04:47:19 2016
 By ,,,
(c) 1993, 2001, 2002 Adobe Systems Incorporated. All rights reserved.
</metadata>
<defs>
<font id="OfficinaSerifStd-Bold" horiz-adv-x="556" >
  <font-face 
    font-family="ITC Officina Serif Std Book"
    font-weight="700"
    font-stretch="normal"
    units-per-em="1000"
    panose-1="2 6 8 6 4 2 3 2 2 4"
    ascent="717"
    descent="-283"
    x-height="494"
    cap-height="685"
    bbox="-55 -261 1137 964"
    underline-thickness="50"
    underline-position="-50"
    unicode-range="U+0020-FB02"
  />
<missing-glyph horiz-adv-x="500" 
d="M0 0v700h500v-700h-500zM250 395l170 255h-340zM280 350l170 -255v510zM80 50h340l-170 255zM50 605v-510l170 255z" />
    <glyph glyph-name="f_i" unicode="fi" horiz-adv-x="667" 
d="M590 642q0 -34 -24 -58.5t-58 -24.5t-58.5 24.5t-24.5 58.5t24 58t59 24q34 0 58 -24t24 -58zM650 79v-65q0 -8 -2.5 -11t-11.5 -3h-243q-9 0 -11.5 3t-2.5 11v65q0 8 2.5 11t11.5 3h52v308h-194v-308h45q13 0 17 -4t4 -17v-51q0 -13 -4 -17t-17 -4h-233q-13 0 -17 4
t-4 17v51q0 13 4 17t17 4h61v308h-71q-13 0 -17 4t-4 17v51q0 13 4 17t17 4h71v41q0 189 160 189q38 0 80 -11t42 -25q0 -3 -2 -9l-18 -70q-2 -10 -9 -10q-2 0 -25 8.5t-45 8.5q-26 0 -38.5 -11.5t-15 -26t-2.5 -43.5v-41h307q9 0 11.5 -3t2.5 -11v-387h64q9 0 11.5 -3
t2.5 -11z" />
    <glyph glyph-name="f_l" unicode="fl" horiz-adv-x="667" 
d="M251 401v-308h68q13 0 17 -4t4 -17v-51q0 -13 -4 -17t-17 -4h-256q-13 0 -17 4t-4 17v51q0 13 4 17t17 4h61v308h-71q-13 0 -17 4t-4 17v51q0 13 4 17t17 4h71v41q0 189 160 189q93 0 167 -29l105 22q9 0 11.5 -3t2.5 -11v-545q0 -21 1 -31t7.5 -19.5t19.5 -9.5
q12 0 25 4.5t14 4.5q7 0 8 -6l20 -82q2 -6 2 -8q0 -10 -32.5 -19t-68.5 -9q-30 0 -52 7t-35 23.5t-20.5 31t-11 41.5t-4 43t-0.5 47v418q-4 1 -17 6t-24 7.5t-36.5 5.5t-58.5 3q-26 0 -38.5 -11.5t-15 -26t-2.5 -43.5v-41h114q17 0 17 -10q0 -2 -2 -10l-14 -59
q-3 -14 -19 -14h-96z" />
    <glyph glyph-name=".notdef" horiz-adv-x="500" 
d="M0 0v700h500v-700h-500zM250 395l170 255h-340zM280 350l170 -255v510zM80 50h340l-170 255zM50 605v-510l170 255z" />
    <glyph glyph-name=".null" horiz-adv-x="0" 
 />
    <glyph glyph-name="nonmarkingreturn" horiz-adv-x="333" 
 />
    <glyph glyph-name="space" unicode=" " horiz-adv-x="296" 
 />
    <glyph glyph-name="exclam" unicode="!" horiz-adv-x="352" 
d="M247 669l-22 -391q-1 -14 -5 -17t-16 -3h-57q-12 0 -16 3t-5 17l-22 391q-1 17 -1 20q0 13 18 13h107q20 0 20 -13q0 -3 -1 -20zM260 67q0 -34 -25 -59t-59 -25q-36 0 -60.5 25t-24.5 59q0 36 24.5 60.5t60.5 24.5q35 0 59.5 -25t24.5 -60z" />
    <glyph glyph-name="quotedbl" unicode="&#x22;" horiz-adv-x="500" 
d="M220 694l-21 -229q-1 -13 -4.5 -16.5t-16.5 -3.5h-41q-13 0 -16.5 3.5t-4.5 16.5l-21 229q-1 3 -1 10q0 13 20 13h87q20 0 20 -13q0 -7 -1 -10zM405 694l-21 -229q-1 -13 -4.5 -16.5t-16.5 -3.5h-41q-13 0 -16.5 3.5t-4.5 16.5l-21 229q-1 3 -1 10q0 13 20 13h87
q20 0 20 -13q0 -7 -1 -10z" />
    <glyph glyph-name="numbersign" unicode="#" 
d="M394 144l-18 -177q-1 -12 -6.5 -15.5t-17.5 -3.5h-47q-20 0 -20 13q0 1 0.5 4.5t0.5 4.5l18 174h-100l-17 -177q-2 -19 -25 -19h-45q-21 0 -21 13q0 1 0.5 4.5t0.5 4.5l17 174h-39q-13 0 -17 4t-4 17v55q0 13 4 16.5t17 3.5h49l17 167h-39q-14 0 -17.5 3.5t-3.5 17.5v54
q0 14 3.5 17.5t17.5 3.5h49l17 163q1 12 6.5 15.5t17.5 3.5h45q21 0 21 -13q0 -2 -0.5 -4.5t-0.5 -3.5l-16 -161h99l17 163q1 12 6 15.5t17 3.5h47q20 0 20 -12q0 -1 -0.5 -4.5t-0.5 -4.5l-16 -161h51q13 0 16.5 -4t3.5 -17v-54q0 -13 -3.5 -17t-16.5 -4h-60l-18 -167h51
q13 0 16.5 -3.5t3.5 -16.5v-55q0 -13 -3.5 -17t-16.5 -4h-60zM313 240l18 167h-100l-17 -167h99z" />
    <glyph glyph-name="dollar" unicode="$" 
d="M309 -11v-45q0 -13 -4 -16.5t-17 -3.5h-20q-13 0 -17 3.5t-4 16.5v45q-37 0 -105.5 16.5t-68.5 36.5q0 3 2 9l29 84q4 8 9 8q1 0 22 -10t53 -21.5t59 -14.5v196q-3 2 -24.5 10.5t-29.5 12.5t-28 15t-29.5 19.5t-24.5 24t-22 30.5t-12.5 36.5t-5.5 45.5q0 51 20.5 90.5
t51 60t57 30t47.5 10.5v49q0 13 4 16.5t17 3.5h20q13 0 17 -3.5t4 -16.5v-49q38 -3 97.5 -19.5t59.5 -38.5q0 -5 -3 -11l-31 -68q-3 -8 -9 -8q-1 0 -21 10t-47 20t-46 10v-185q2 -1 20 -9.5t23.5 -11.5t22.5 -12.5t24 -15t21.5 -17t21 -20.5t16.5 -22.5t14.5 -27.5t8 -31
t3.5 -36q0 -49 -17.5 -87t-46 -59.5t-55.5 -33t-56 -16.5zM302 270v-173q67 18 67 82q0 20 -6.5 36t-19.5 27.5t-20 16t-21 11.5zM254 410v163q-68 -17 -68 -78q0 -54 68 -85z" />
    <glyph glyph-name="percent" unicode="%" horiz-adv-x="833" 
d="M632 58q30 0 39.5 26t9.5 75t-10 75t-39 26t-39 -26t-10 -75t9.5 -75t39.5 -26zM781 159q0 -80 -39.5 -128t-109.5 -48t-109.5 47.5t-39.5 128.5q0 80 39.5 128t109.5 48t109.5 -48t39.5 -128zM586 659l-236 -659q-6 -17 -23 -17h-51q-21 0 -21 10q0 4 4 14l237 662
q6 16 23 16h51q19 0 19 -12q0 -5 -3 -14zM348 492q0 -80 -39.5 -128t-109.5 -48t-109.5 47.5t-39.5 128.5q0 80 39.5 128t109.5 48t109.5 -48t39.5 -128zM199 391q30 0 39.5 26t9.5 75t-10 75t-39 26t-39 -26t-10 -75t9.5 -75t39.5 -26z" />
    <glyph glyph-name="ampersand" unicode="&#x26;" horiz-adv-x="611" 
d="M341 362l107 -126q17 33 24 67.5t8.5 50.5t8.5 16q3 0 11 -2l73 -20q12 -4 12 -16q0 -41 -22 -99.5t-38 -83.5l71 -86q9 -11 9 -14q0 -6 -10 -15l-50 -45q-8 -6 -14 -6q-5 0 -15 10l-56 64q-16 -15 -28 -24t-36 -22.5t-56.5 -20.5t-72.5 -7q-105 0 -166.5 50.5
t-61.5 139.5q0 20 3.5 38t11 34t14.5 29t20 26t20.5 21t22.5 18.5l20 14t19 12.5l15 8q-2 2 -16.5 17t-25 27.5t-23.5 31.5t-20 40.5t-7 42.5q0 75 60 122t136 47q77 0 128 -43t51 -116q0 -19 -5 -37.5t-15.5 -35t-19.5 -29.5t-24.5 -27.5t-23.5 -21t-23 -18t-16 -12.5z
M280 431q2 2 12.5 11t15.5 13.5t14 15t13.5 19t8.5 21t4 24.5q0 33 -17.5 52t-47.5 19t-50 -20t-20 -51q0 -17 8.5 -34.5t18 -28t23.5 -24t17 -17.5zM385 143l-136 160q-19 -14 -30.5 -23t-28 -36t-16.5 -56q0 -44 29.5 -72t71.5 -28q61 0 110 55z" />
    <glyph glyph-name="quotesingle" unicode="'" horiz-adv-x="204" 
d="M164 694l-21 -229q-1 -13 -4.5 -16.5t-16.5 -3.5h-41q-13 0 -16.5 3.5t-4.5 16.5l-21 229q-1 3 -1 10q0 13 20 13h87q20 0 20 -13q0 -7 -1 -10z" />
    <glyph glyph-name="parenleft" unicode="(" horiz-adv-x="444" 
d="M406 -213q0 -8 -30 -28t-41 -20q-7 0 -30 25.5t-54.5 74.5t-61.5 109t-50.5 140t-20.5 157t21 157t50.5 140t61 108.5t55 74t29.5 25.5q11 0 41 -20t30 -28q0 -7 -16.5 -30.5t-39.5 -61.5t-46 -88t-39.5 -123.5t-16.5 -153.5t16.5 -154t39.5 -124t46 -88t39.5 -61.5
t16.5 -30.5z" />
    <glyph glyph-name="parenright" unicode=")" horiz-adv-x="444" 
d="M326 245q0 -77 -20.5 -157t-50.5 -140t-61.5 -109t-54.5 -74.5t-30 -25.5q-11 0 -41 20t-30 28q0 7 16.5 30.5t39.5 61.5t46 88t39.5 124t16.5 154t-16.5 153.5t-39.5 123.5t-46 88t-39.5 61.5t-16.5 30.5q0 8 30 28t41 20q6 0 29.5 -25.5t55 -74t61 -108.5t50.5 -140
t21 -157z" />
    <glyph glyph-name="asterisk" unicode="*" 
d="M415 367l-52 -37q-10 -8 -15 -8q-8 0 -14 14l-57 112l-56 -112q-6 -14 -14 -14q-5 0 -15 8l-52 37q-11 7 -11 15q0 6 9 15l90 86l-123 19q-19 2 -19 12q0 1 3 13l20 61q5 16 13 16q4 0 14 -5l111 -59l-21 123q-1 5 -1 11q0 11 20 11h65q20 0 20 -11q0 -6 -1 -11l-21 -123
l111 59q10 5 14 5q8 0 13 -16l20 -61q3 -12 3 -13q0 -10 -19 -12l-123 -19l90 -86q9 -9 9 -15q0 -8 -11 -15z" />
    <glyph glyph-name="plus" unicode="+" 
d="M328 207v-160q0 -11 -3 -14t-14 -3h-66q-11 0 -14 3t-3 14v160h-160q-10 0 -13.5 3.5t-3.5 13.5v66q0 10 3.5 13.5t13.5 3.5h160v160q0 11 3 14t14 3h66q11 0 14 -3t3 -14v-160h160q10 0 13.5 -3.5t3.5 -13.5v-66q0 -10 -3.5 -13.5t-13.5 -3.5h-160z" />
    <glyph glyph-name="comma" unicode="," horiz-adv-x="296" 
d="M231 99l-119 -223q-8 -14 -14 -14l-12 3l-38 13q-16 6 -16 13q0 4 3 13l62 204q5 17 22 17h97q20 0 20 -11q0 -8 -5 -15z" />
    <glyph glyph-name="hyphen" unicode="-" horiz-adv-x="370" 
d="M328 292v-73q0 -13 -4 -17t-17 -4h-244q-13 0 -17 4t-4 17v73q0 14 4 17.5t17 3.5h244q13 0 17 -3.5t4 -17.5z" />
    <glyph glyph-name="period" unicode="." horiz-adv-x="296" 
d="M243 78q0 -40 -28 -67.5t-67 -27.5t-67 28t-28 67t28 67t67 28t67 -27.5t28 -67.5z" />
    <glyph glyph-name="slash" unicode="/" horiz-adv-x="444" 
d="M410 696l-325 -889q-7 -19 -27 -19h-58q-20 0 -20 12q0 6 3 15l326 891q6 18 27 18h59q18 0 18 -12q0 -7 -3 -16z" />
    <glyph glyph-name="zero" unicode="0" 
d="M278 91q62 0 86 64.5t24 178.5t-24 178.5t-86 64.5q-32 0 -54.5 -18.5t-34 -53.5t-16.5 -76t-5 -95t5 -95t16.5 -76t34 -53.5t54.5 -18.5zM515 334q0 -171 -60.5 -261t-176.5 -90t-176.5 90t-60.5 261t60 261t177 90q115 0 176 -90t61 -261z" />
    <glyph glyph-name="one" unicode="1" 
d="M456 79v-65q0 -8 -2.5 -11t-11.5 -3h-307q-9 0 -11.5 3t-2.5 11v65q0 8 2.5 11t11.5 3h101v424l-76 -46q-10 -6 -14 -6q-7 0 -14 13l-26 45q-4 8 -4 13q0 7 12 16l159 116h70q13 0 16.5 -4t3.5 -16v-555h79q9 0 11.5 -3t2.5 -11z" />
    <glyph glyph-name="two" unicode="2" 
d="M473 94v-73q0 -13 -3.5 -17t-16.5 -4h-361q-8 0 -10.5 3t-2.5 14q0 17 0.5 32t0.5 26t1.5 22t2 17.5t3 15.5t3 12t4.5 11.5t4.5 10t5.5 11.5l6 12q17 36 49.5 69t65.5 57t64 49t50.5 57.5t19.5 70.5q0 43 -21.5 65t-60.5 22q-32 0 -54 -16t-30 -35.5t-16 -35.5t-16 -16
q-5 0 -11 3l-64 24q-11 4 -11 15q0 17 12 43t35.5 55.5t67.5 50t99 20.5q90 0 140 -49t50 -141q0 -36 -9 -67.5t-20.5 -53t-34 -45t-38.5 -36.5t-45 -35t-43 -33q-42 -35 -55 -56.5t-16 -53.5h235q13 0 16.5 -4t3.5 -17z" />
    <glyph glyph-name="three" unicode="3" 
d="M134 524l-55 49q-5 3 -5 10q0 8 12 24t33 34t57 31t77 13q87 0 141.5 -48.5t54.5 -128.5q0 -44 -16.5 -76.5t-33.5 -45.5t-44 -27q117 -42 117 -170q0 -94 -66 -150t-162 -56q-58 0 -124 19t-66 36q0 2 2 10l20 71q3 10 11 10q3 0 23.5 -10.5t54 -20.5t68.5 -10
q52 0 80.5 28.5t28.5 79.5q0 100 -124 100h-31q-13 0 -16.5 3.5t-3.5 16.5v67q0 13 3.5 17t16.5 4h33q109 0 109 94q0 36 -23 59t-60 23q-28 0 -50.5 -15t-35.5 -30.5t-17 -15.5t-9 5z" />
    <glyph glyph-name="four" unicode="4" 
d="M437 132v-129q0 -13 -3.5 -16.5t-16.5 -3.5h-87q-13 0 -16.5 3.5t-3.5 16.5v129h-244q-13 0 -17 3.5t-4 16.5v105l249 415q7 13 13 13q4 0 14 -4l60 -25q15 -6 15 -14q0 -4 -6 -14l-233 -396h153l16 161q1 12 4.5 16t16.5 4h69q13 0 16.5 -4t3.5 -17l1 -160h56
q14 0 17.5 -3.5t3.5 -20.5v-56q0 -13 -4 -16.5t-17 -3.5h-56z" />
    <glyph glyph-name="five" unicode="5" 
d="M218 563l-17 -159q47 30 102 30q88 0 139.5 -59.5t51.5 -147.5q0 -108 -69.5 -176t-189.5 -68q-55 0 -110 13.5t-55 31.5q0 2 0.5 6t0.5 5l14 73q2 9 9 9q2 0 23 -7.5t53 -15t60 -7.5q70 0 109.5 37.5t39.5 96.5q0 48 -25.5 76t-75.5 28q-36 0 -60.5 -13.5t-36.5 -27
t-16 -13.5q-2 0 -11 3l-60 19q-16 5 -16 13q0 7 1 10l31 329q1 14 4.5 16.5t16.5 2.5h293q13 0 17 -3.5t4 -16.5v-64q0 -14 -3.5 -17.5t-17.5 -3.5h-206z" />
    <glyph glyph-name="six" unicode="6" 
d="M465 644l-21 -70q-2 -10 -10 -10q-1 0 -24.5 8t-44.5 8q-122 0 -167 -170l2 -2q47 59 118 59q77 0 129.5 -58.5t52.5 -175.5q0 -116 -58 -183t-157 -67t-156.5 71.5t-57.5 221.5q0 198 83 303.5t216 105.5q27 0 50 -5.5t35 -13t12 -13.5q0 -3 -2 -9zM289 91q43 0 67 35.5
t24 101.5q0 134 -89 134q-90 0 -90 -134q0 -137 88 -137z" />
    <glyph glyph-name="seven" unicode="7" 
d="M478 609l-223 -611q-6 -15 -14 -15q-7 0 -11 1l-83 16q-20 4 -20 13q0 6 3 13l212 527h-245q-13 0 -17 3.5t-4 17.5v74q0 13 4 16.5t17 3.5h361q13 0 16.5 -3.5t3.5 -16.5v-39z" />
    <glyph glyph-name="eight" unicode="8" 
d="M516 177q0 -78 -62 -136t-174 -58q-103 0 -168 50t-65 141q0 122 142 177q-117 54 -117 159q0 72 59 123.5t151 51.5q88 0 148 -49.5t60 -124.5q0 -96 -113 -157q139 -65 139 -177zM286 399q15 7 23.5 11.5t23.5 16t22.5 29.5t7.5 41q0 35 -22.5 59t-59.5 24
q-36 0 -59 -24t-23 -58q0 -23 9 -41.5t26.5 -30.5t26 -16t25.5 -11zM281 88q47 0 77.5 26t30.5 66q0 77 -108 121l-6 3l-8 -4q-8 -4 -11.5 -6t-12.5 -7.5t-13.5 -9t-13 -10.5t-13.5 -13t-11.5 -14.5t-9.5 -17t-5.5 -19.5t-2.5 -22q0 -44 30 -68.5t77 -24.5z" />
    <glyph glyph-name="nine" unicode="9" 
d="M95 24l21 70q2 10 10 10q1 0 24.5 -8t44.5 -8q122 0 167 170l-2 2q-47 -59 -118 -59q-77 0 -129.5 58.5t-52.5 175.5q0 116 58 183t157 67t156.5 -71.5t57.5 -221.5q0 -198 -83 -303.5t-216 -105.5q-27 0 -50 5.5t-35 13t-12 13.5q0 3 2 9zM269 306q90 0 90 134
q0 137 -88 137q-43 0 -67 -35.5t-24 -101.5q0 -134 89 -134z" />
    <glyph glyph-name="colon" unicode=":" horiz-adv-x="296" 
d="M243 78q0 -40 -28 -67.5t-67 -27.5t-67 28t-28 67t28 67t67 28t67 -27.5t28 -67.5zM243 399q0 -40 -28 -67.5t-67 -27.5t-67 28t-28 67t28 67t67 28t67 -27.5t28 -67.5z" />
    <glyph glyph-name="semicolon" unicode=";" horiz-adv-x="296" 
d="M231 99l-119 -223q-8 -14 -14 -14l-12 3l-38 13q-16 6 -16 13q0 4 3 13l62 204q5 17 22 17h97q20 0 20 -11q0 -8 -5 -15zM243 399q0 -40 -28 -67.5t-67 -27.5t-67 28t-28 67t28 67t67 28t67 -27.5t28 -67.5z" />
    <glyph glyph-name="less" unicode="&#x3c;" 
d="M199 257l296 -94q8 -3 8 -12q0 -6 -1 -8l-17 -60q-3 -11 -9 -11q-2 0 -8 2l-407 136q-11 3 -11 15v63q0 9 2 12.5t9 5.5l407 135l4 1q3 1 4 1h3t2 -1t2 -3t2 -6l17 -60q1 -5 1 -8q0 -10 -8 -12l-296 -94v-2z" />
    <glyph glyph-name="equal" unicode="=" 
d="M505 210v-66q0 -10 -3.5 -13.5t-13.5 -3.5h-420q-10 0 -13.5 3.5t-3.5 13.5v66q0 10 3.5 13.5t13.5 3.5h420q10 0 13.5 -3.5t3.5 -13.5zM505 369v-66q0 -11 -3.5 -14t-13.5 -3h-420q-10 0 -13.5 3t-3.5 14v66q0 10 3.5 13.5t13.5 3.5h420q10 0 13.5 -3t3.5 -14z" />
    <glyph glyph-name="greater" unicode="&#x3e;" 
d="M355 259l-296 94q-8 2 -8 12l1 8l17 60q2 7 3.5 8.5t5.5 1.5q1 0 4 -1l4 -1l407 -135q7 -2 9 -5.5t2 -12.5v-63q0 -12 -11 -15l-407 -135q-4 -2 -8 -2q-6 0 -9 10l-17 60q0 1 -0.5 3.5t-0.5 4.5q0 9 8 12l296 94v2z" />
    <glyph glyph-name="question" unicode="?" horiz-adv-x="444" 
d="M242 332v-68q0 -14 -4 -17.5t-17 -3.5h-73q-14 0 -17.5 3.5t-3.5 17.5v125q0 7 3.5 12t11.5 9t15.5 6.5t20.5 6t20 6.5q33 12 52 31t19 56q0 71 -83 71q-27 0 -56 -8.5t-47.5 -16.5t-21.5 -8q-8 0 -12 10l-25 68q-2 6 -2 11q0 19 66.5 39t119.5 20q90 0 143 -52t53 -135
q0 -37 -12 -67t-27 -47.5t-41.5 -33t-41 -21t-40.5 -14.5zM272 67q0 -34 -25 -59t-59 -25q-36 0 -60.5 25t-24.5 59q0 36 24.5 60.5t60.5 24.5q35 0 59.5 -25t24.5 -60z" />
    <glyph glyph-name="at" unicode="@" horiz-adv-x="1000" 
d="M801 -30l16 -41l1 -5q2 -4 2 -7q0 -12 -43.5 -32t-124.5 -37.5t-166 -17.5q-192 0 -296 95.5t-104 269.5q0 202 139 337.5t339 135.5q164 0 257.5 -83.5t93.5 -221.5q0 -140 -84.5 -224t-193.5 -84q-26 0 -44 6.5t-27.5 18.5t-13.5 21.5t-7 22.5q-51 -69 -117 -69
q-44 0 -68.5 31t-24.5 91q0 104 54 182t128 78q44 0 78 -34l5 11q4 10 16 10h66q12 0 12 -10q0 -2 -0.5 -5.5t-0.5 -4.5l-45 -213q-3 -13 -3 -26q0 -28 35 -28q54 0 99.5 60t45.5 161q0 105 -69.5 170t-196.5 65q-168 0 -275.5 -114t-107.5 -287q0 -137 80.5 -212t226.5 -75
q85 0 157 18.5t110 36.5t41 18q6 0 10 -8zM549 228l24 112q-22 22 -48 22q-38 0 -60 -62t-22 -126q0 -37 27 -37q32 0 51.5 27t27.5 64z" />
    <glyph glyph-name="A" unicode="A" horiz-adv-x="630" 
d="M615 75v-54q0 -13 -4 -17t-17 -4h-208q-13 0 -17 4t-4 17v54q0 13 4 17t17 4h32l-23 87h-172l-22 -87h33q13 0 17 -4t4 -17v-54q0 -13 -4 -17t-17 -4h-198q-13 0 -17 4t-4 17v54q0 13 4 17t17 4h30l175 573q3 11 6.5 13.5t15.5 2.5h104q12 0 15.5 -2.5t6.5 -13.5
l171 -573h34q13 0 17 -4t4 -17zM370 273l-41 172q-9 33 -22 140h-2q-7 -78 -23 -140l-44 -172h132z" />
    <glyph glyph-name="B" unicode="B" horiz-adv-x="593" 
d="M247 402h31q51 0 80 20t29 74q0 84 -98 84h-42v-178zM247 105h36q61 0 94 19.5t33 77.5q0 57 -32.5 76t-92.5 19h-38v-192zM61 685h228q45 0 79 -5.5t72.5 -21.5t60 -53.5t21.5 -94.5q0 -35 -9.5 -62t-28.5 -44.5t-31 -26t-33 -18.5q125 -35 125 -165q0 -48 -14 -84
t-36 -56.5t-55.5 -33t-66.5 -16.5t-76 -4h-236q-13 0 -17 4t-4 17v54q0 13 4 17t17 4h51v493h-51q-13 0 -17 4t-4 17v54q0 13 4 17t17 4z" />
    <glyph glyph-name="C" unicode="C" horiz-adv-x="519" 
d="M484 186v-145q0 -23 -54.5 -40.5t-119.5 -17.5q-138 0 -204.5 87t-66.5 267q0 175 68 270t201 95q57 0 112.5 -20t55.5 -46v-134q0 -10 -3.5 -13.5t-13.5 -3.5h-74q-11 0 -14 3.5t-3 13.5v83q-26 9 -53 9q-71 0 -102.5 -52t-31.5 -179q0 -55 3.5 -94.5t12.5 -74.5
t24.5 -56.5t41 -34t60.5 -12.5q31 0 53 5v90q0 10 3.5 13.5t13.5 3.5h74q10 0 13.5 -3.5t3.5 -13.5z" />
    <glyph glyph-name="D" unicode="D" horiz-adv-x="611" 
d="M52 685h229q76 0 127 -14.5t89.5 -51t56.5 -104t18 -169.5q0 -105 -20 -174.5t-61 -106.5t-91 -51t-122 -14h-227q-13 0 -17 4t-4 17v54q0 13 4 17t17 4h51v493h-51q-13 0 -17 4t-4 17v54q0 13 4 17t18 4zM237 108h38q87 0 121 50t34 190q0 132 -34.5 180.5t-120.5 48.5
h-38v-469z" />
    <glyph glyph-name="E" unicode="E" horiz-adv-x="537" 
d="M481 178v-157q0 -13 -3.5 -17t-16.5 -4h-401q-13 0 -17 4t-4 17v54q0 13 4 17t17 4h51v493h-51q-13 0 -17 4t-4 17v54q0 13 4 17t17 4h400q13 0 17 -3t4 -14v-152q0 -13 -4.5 -17t-16.5 -4h-66q-13 0 -17 4t-4 17v61h-127v-165h170q14 0 17.5 -4t3.5 -17v-66
q0 -13 -4 -17t-17 -4h-170v-196h127v70q0 13 3.5 17t17.5 4h66q14 0 17.5 -3.5t3.5 -17.5z" />
    <glyph glyph-name="F" unicode="F" horiz-adv-x="500" 
d="M333 75v-54q0 -13 -4 -17t-17 -4h-252q-13 0 -17 4t-4 17v54q0 13 4 17t17 4h51v493h-51q-13 0 -17 4t-4 17v54q0 13 4 17t17 4h400q13 0 17 -3t4 -14v-152q0 -13 -4.5 -17t-16.5 -4h-66q-13 0 -17 4t-4 17v61h-127v-165h170q14 0 17.5 -4t3.5 -17v-66q0 -13 -4 -17
t-17 -4h-170v-208h66q13 0 17 -4t4 -17z" />
    <glyph glyph-name="G" unicode="G" horiz-adv-x="611" 
d="M516 264v-203q0 -30 -67 -54t-133 -24q-268 0 -268 356q0 178 68 270.5t200 92.5q64 0 124.5 -20t60.5 -49v-129q0 -10 -3.5 -13.5t-13.5 -3.5h-74q-11 0 -14 3t-3 14v76q-44 14 -68 14q-73 0 -104 -63.5t-31 -184.5q0 -127 29 -191t105 -64q36 0 72 16v157h-75
q-13 0 -17 4t-4 17v54q0 13 4 17t17 4h244q13 0 17 -4t4 -17v-54q0 -13 -4 -17t-17 -4h-49z" />
    <glyph glyph-name="H" unicode="H" horiz-adv-x="685" 
d="M645 75v-54q0 -13 -4 -17t-17 -4h-234q-13 0 -17 4t-4 17v54q0 13 4 17t17 4h48v204h-191v-204h48q13 0 17 -4t4 -17v-54q0 -13 -4 -17t-17 -4h-234q-13 0 -17 4t-4 17v54q0 13 4 17t17 4h51v493h-51q-13 0 -17 4t-4 17v54q0 13 4 17t17 4h234q13 0 17 -4t4 -17v-54
q0 -13 -4 -17t-17 -4h-48v-181h191v181h-48q-13 0 -17 4t-4 17v54q0 13 4 17t17 4h234q13 0 17 -4t4 -17v-54q0 -13 -4 -17t-17 -4h-51v-493h51q13 0 17 -4t4 -17z" />
    <glyph glyph-name="I" unicode="I" horiz-adv-x="370" 
d="M324 75v-54q0 -13 -4 -17t-17 -4h-237q-13 0 -17 4t-4 17v54q0 13 4 17t17 4h51v493h-51q-13 0 -17 4t-4 17v54q0 13 4 17t17 4h237q13 0 17 -4t4 -17v-54q0 -13 -4 -17t-17 -4h-51v-493h51q13 0 17 -4t4 -17z" />
    <glyph glyph-name="J" unicode="J" horiz-adv-x="463" 
d="M387 664v-453q0 -50 -8 -88t-28 -71.5t-59.5 -51t-96.5 -17.5q-54 0 -92 19.5t-56 53t-25 65.5t-7 68q0 13 9 13h99q12 0 12 -14v-8.5v-11t0.5 -12t1.5 -13t3.5 -12.5t5.5 -13t7.5 -10.5t10.5 -9t14 -5.5t18 -2q16 0 27 5.5t17 13t8.5 23t3 26.5t0.5 33v397h-137
q-13 0 -17 4t-4 17v54q0 13 4 17t17 4h251q13 0 17 -4t4 -17z" />
    <glyph glyph-name="K" unicode="K" horiz-adv-x="630" 
d="M621 75v-54q0 -13 -4 -17t-17 -4h-109q-11 0 -14 2t-11 13l-218 287h-2v-206h48q13 0 17 -4t4 -17v-54q0 -13 -4 -17t-17 -4h-234q-13 0 -17 4t-4 17v54q0 13 4 17t17 4h51v493h-51q-13 0 -17 4t-4 17v54q0 13 4 17t17 4h234q13 0 17 -4t4 -17v-54q0 -13 -4 -17t-17 -4
h-48v-205h2l212 291q8 10 21 10h107q13 0 17 -4t4 -17v-54q0 -13 -4 -17t-17 -4h-43l-181 -238l206 -255h30q12 0 16.5 -4t4.5 -17z" />
    <glyph glyph-name="L" unicode="L" horiz-adv-x="537" 
d="M111 96v493h-51q-13 0 -17 4t-4 17v54q0 13 4 17t17 4h240q13 0 17 -4t4 -17v-54q0 -13 -4 -17t-17 -4h-54v-481h146l18 77q4 18 12 18q2 0 4.5 -0.5t5.5 -1.5t5 -1l66 -14q18 -4 18 -13q0 -5 -2 -13l-32 -142q-2 -11 -6.5 -14.5t-15.5 -3.5h-405q-13 0 -17 4t-4 17v54
q0 13 4 17t17 4h51z" />
    <glyph glyph-name="M" unicode="M" horiz-adv-x="759" 
d="M720 75v-54q0 -13 -4 -17t-17 -4h-205q-13 0 -17 4t-4 17v54q0 13 4 17t17 4h44l-7 264q0 18 -1 80t-1 80h-2q-16 -93 -35 -157l-58 -195q-3 -11 -6.5 -14t-15.5 -3h-66q-12 0 -15.5 3t-6.5 14l-58 195q-19 64 -35 157h-2q0 -18 -1 -80t-1 -80l-7 -264h44q13 0 17 -4
t4 -17v-54q0 -13 -4 -17t-17 -4h-205q-13 0 -17 4t-4 17v54q0 13 4 17t17 4h46l21 493h-48q-13 0 -17 4t-4 17v54q0 13 4 17t17 4h169q11 0 14.5 -2.5t7.5 -13.5l81 -252q19 -60 28 -120h2q9 60 28 120l81 252q3 8 4.5 10.5t5.5 4t12 1.5h169q13 0 17 -4t4 -17v-54
q0 -13 -4 -17t-17 -4h-48l21 -493h46q13 0 17 -4t4 -17z" />
    <glyph glyph-name="N" unicode="N" horiz-adv-x="667" 
d="M577 589v-568q0 -13 -3.5 -17t-17.5 -4h-66q-16 0 -23 14l-184 341q-35 64 -59 136h-2q0 -15 2.5 -50t2.5 -60v-285h50q13 0 17 -4t4 -17v-54q0 -13 -4 -17t-17 -4h-216q-13 0 -17 4t-4 17v54q0 13 4 17t17 4h51v493h-51q-13 0 -17 4t-4 17v54q0 13 4 17t17 4h154
q11 0 14.5 -2t8.5 -11l166 -310q39 -75 60 -145h2q0 16 -2 65t-2 65v242h-50q-13 0 -17 4t-4 17v54q0 13 4 17t17 4h216q13 0 17 -4t4 -17v-54q0 -13 -4 -17t-17 -4h-51z" />
    <glyph glyph-name="O" unicode="O" horiz-adv-x="593" 
d="M545 342q0 -178 -65 -268.5t-184 -90.5t-184 90.5t-65 268.5q0 179 65.5 269.5t183.5 90.5t183.5 -91t65.5 -269zM296 88q107 0 107 254q0 255 -107 255t-107 -255q0 -254 107 -254z" />
    <glyph glyph-name="P" unicode="P" 
d="M247 379h31q26 0 43.5 3.5t35.5 14t27 34t9 59.5q0 25 -6.5 42.5t-15 26.5t-24.5 14t-28 6t-31 1h-41v-201zM334 75v-54q0 -13 -4 -17t-17 -4h-252q-13 0 -17 4t-4 17v54q0 13 4 17t17 4h51v493h-51q-13 0 -17 4t-4 17v54q0 13 4 17t17 4h234q21 0 33.5 -0.5t36.5 -2.5
t39.5 -7t37 -13.5t35 -22.5t26.5 -33t19 -47t6 -62q0 -59 -20.5 -104t-54.5 -70t-72.5 -37t-80.5 -12h-53v-178h66q13 0 17 -4t4 -17z" />
    <glyph glyph-name="Q" unicode="Q" horiz-adv-x="593" 
d="M570 -26l-77 -55q-4 -2 -9 -2q-29 0 -103 80q-20 -8 -39 -11q-22 -3 -46 -3q-119 0 -184 90.5t-65 268.5q0 179 65.5 269.5t183.5 90.5t183.5 -91t65.5 -269q0 -195 -73 -278q8 -7 35.5 -26.5t47 -35.5t19.5 -21q0 -3 -4 -7zM296 88q107 0 107 254q0 255 -107 255
t-107 -255q0 -254 107 -254z" />
    <glyph glyph-name="R" unicode="R" horiz-adv-x="611" 
d="M248 388h26q28 0 46.5 3t37 13t27.5 31.5t9 54.5q0 31 -9 50.5t-27 27.5t-33 10t-40 2h-37v-192zM603 75v-54q0 -13 -4 -17t-17 -4h-128q-12 0 -15 2t-8 12l-135 269h-48v-187h47q13 0 17 -4t4 -17v-54q0 -13 -4 -17t-17 -4h-233q-13 0 -17 4t-4 17v54q0 13 4 17t17 4h51
v493h-51q-13 0 -17 4t-4 17v54q0 13 4 17t17 4h234q26 0 44.5 -1.5t49 -6.5t52.5 -18t43 -33t32.5 -54.5t11.5 -79.5q0 -37 -9 -67.5t-19.5 -48t-30 -33.5t-28.5 -21.5t-27 -14.5l121 -211h46q13 0 17 -4t4 -17z" />
    <glyph glyph-name="S" unicode="S" horiz-adv-x="500" 
d="M339 501v80q-36 13 -67 13q-40 0 -67 -18.5t-27 -59.5q0 -34 29.5 -56.5t87 -49t88.5 -49.5q86 -64 86 -167q0 -95 -60.5 -153t-155.5 -58q-67 0 -136.5 19t-69.5 49v151q0 10 3.5 13.5t13.5 3.5h74q10 0 13.5 -3.5t3.5 -13.5v-91q60 -20 94 -20q90 0 90 92
q0 31 -19 54.5t-43 35t-68.5 32t-73.5 38.5q-43 26 -65 61t-22 94q0 102 62.5 153t157.5 51q59 0 119 -19t60 -47v-135q0 -10 -3.5 -13.5t-13.5 -3.5h-74q-10 0 -13.5 3t-3.5 14z" />
    <glyph glyph-name="T" unicode="T" horiz-adv-x="519" 
d="M417 75v-54q0 -13 -4 -17t-17 -4h-267q-13 0 -17 4t-4 17v54q0 13 4 17t17 4h66v481h-73v-96q0 -10 -3.5 -13.5t-13.5 -3.5h-59q-10 0 -13.5 3t-3.5 14v187q0 10 3.5 13.5t13.5 3.5h433q10 0 13.5 -3.5t3.5 -13.5v-187q0 -10 -3.5 -13.5t-13.5 -3.5h-59q-10 0 -13.5 3
t-3.5 14v96h-73v-481h66q13 0 17 -4t4 -17z" />
    <glyph glyph-name="U" unicode="U" horiz-adv-x="685" 
d="M584 589v-357q0 -121 -53.5 -185t-187.5 -64t-187.5 64t-53.5 185v357h-51q-13 0 -17 4t-4 17v54q0 13 4 17t17 4h236q13 0 17 -4t4 -17v-54q0 -13 -4 -17t-17 -4h-50v-357q0 -33 2.5 -53.5t12 -43t32.5 -33.5t59 -11t59 11t32.5 33.5t12 43t2.5 53.5v357h-50
q-13 0 -17 4t-4 17v54q0 13 4 17t17 4h236q13 0 17 -4t4 -17v-54q0 -13 -4 -17t-17 -4h-51z" />
    <glyph glyph-name="V" unicode="V" horiz-adv-x="611" 
d="M547 589l-165 -589q-3 -11 -6.5 -14t-15.5 -3h-114q-12 0 -15.5 3t-6.5 14l-160 589h-39q-11 0 -14 3.5t-3 13.5v62q0 10 3 13.5t14 3.5h146q10 0 13 -2t5 -12l88 -399q12 -57 25 -153h2q9 69 30 153l98 399q2 10 5 12t13 2h136q10 0 13.5 -3.5t3.5 -13.5v-62
q0 -10 -3.5 -13.5t-13.5 -3.5h-39z" />
    <glyph glyph-name="W" unicode="W" horiz-adv-x="852" 
d="M781 589l-134 -588q-3 -11 -7 -14.5t-15 -3.5h-86q-13 0 -16.5 3t-5.5 15l-66 344q-16 80 -23 173h-2q-7 -100 -25 -173l-81 -344q-2 -12 -5.5 -15t-16.5 -3h-86q-11 0 -15 3.5t-7 14.5l-119 588h-37q-10 0 -13.5 3.5t-3.5 13.5v62q0 10 3.5 13.5t13.5 3.5h131
q10 0 13 -2.5t5 -12.5l60 -320q13 -69 22 -189h2q10 96 32 189l71 314q0 1 1 4t1 4t1 3t1.5 2.5t2 2.5t3 2t3.5 1t5 1t6.5 0.5t7.5 0.5h67q13 0 16 -3t5 -14q1 -3 1 -4l70 -314q16 -73 28 -189h2q9 110 23 189l60 320q2 10 5 12.5t13 2.5h126q10 0 13.5 -3.5t3.5 -13.5v-62
q0 -10 -3.5 -13.5t-13.5 -3.5h-37z" />
    <glyph glyph-name="X" unicode="X" horiz-adv-x="611" 
d="M597 79v-62q0 -11 -3.5 -14t-13.5 -3h-135q-11 0 -14.5 2.5t-8.5 11.5l-89 166q-20 37 -28 70h-2q-6 -28 -28 -70l-89 -166q-3 -5 -4 -7t-3.5 -4t-6 -2.5t-9.5 -0.5h-135q-10 0 -13.5 3t-3.5 14v62q0 11 3.5 14t13.5 3h53l152 267l-134 226h-55q-10 0 -13.5 3.5
t-3.5 13.5v62q0 10 3.5 13.5t13.5 3.5h138q10 0 13.5 -2t8.5 -12l71 -137q8 -15 28 -78h2q14 50 28 78l71 137q5 10 8.5 12t13.5 2h138q10 0 13.5 -3.5t3.5 -13.5v-62q0 -10 -3.5 -13.5t-13.5 -3.5h-55l-134 -226l152 -267h53q10 0 13.5 -3t3.5 -14z" />
    <glyph glyph-name="Y" unicode="Y" 
d="M439 75v-54q0 -13 -4 -17t-17 -4h-271q-13 0 -17 4t-4 17v54q0 13 4 17t17 4h68v185l-159 308h-26q-10 0 -13.5 3.5t-3.5 13.5v62q0 10 3.5 13.5t13.5 3.5h114q12 0 14.5 -2t7.5 -12l78 -161q30 -61 40 -114h2q16 65 40 114l78 161q5 10 7.5 12t14.5 2h109q11 0 14 -3.5
t3 -13.5v-62q0 -10 -3 -13.5t-14 -3.5h-32l-153 -308v-185h68q13 0 17 -4t4 -17z" />
    <glyph glyph-name="Z" unicode="Z" horiz-adv-x="519" 
d="M492 161l-32 -143q-3 -13 -6 -15.5t-16 -2.5h-377q-11 0 -14 3t-3 14v83l279 477h-161v-80q0 -10 -3.5 -13.5t-13.5 -3.5h-74q-11 0 -14 3t-3 14v171q0 11 3 14t14 3h370q13 0 17 -3.5t4 -16.5v-90l-275 -467h179l18 80q2 15 12 15l11 -2l73 -16q14 -3 14 -12q0 -2 -1 -6
t-1 -6z" />
    <glyph glyph-name="bracketleft" unicode="[" horiz-adv-x="444" 
d="M387 -118v-63q0 -13 -3.5 -17t-17.5 -4h-195q-13 0 -17 4t-4 17v877q0 14 4 17.5t17 3.5h195q14 0 17.5 -3.5t3.5 -17.5v-63q0 -13 -3.5 -17t-17.5 -4h-89v-709h89q14 0 17.5 -3.5t3.5 -17.5z" />
    <glyph glyph-name="backslash" unicode="\" horiz-adv-x="444" 
d="M143 706l326 -891q3 -9 3 -15q0 -12 -20 -12h-58q-20 0 -27 19l-325 889q-3 9 -3 16q0 12 18 12h59q21 0 27 -18z" />
    <glyph glyph-name="bracketright" unicode="]" horiz-adv-x="444" 
d="M294 696v-877q0 -13 -4 -17t-17 -4h-195q-14 0 -17.5 4t-3.5 17v63q0 14 3.5 17.5t17.5 3.5h89v709h-89q-14 0 -17.5 4t-3.5 17v63q0 14 3.5 17.5t17.5 3.5h195q13 0 17 -3.5t4 -17.5z" />
    <glyph glyph-name="asciicircum" unicode="^" 
d="M453 336l-60 -13q-3 -1 -8 -1q-10 0 -13 7l-94 237l-94 -237q-3 -7 -13 -7q-5 0 -8 1l-60 13q-10 2 -10 9q0 1 2.5 6t2.5 6l131 319q4 9 16 9h66q12 0 16 -9l131 -319q0 -1 2.5 -6t2.5 -6q0 -7 -10 -9z" />
    <glyph glyph-name="underscore" unicode="_" horiz-adv-x="500" 
d="M500 -75v-50h-500v50h500z" />
    <glyph glyph-name="grave" unicode="`" horiz-adv-x="335" 
d="M255 610l-16 -32q-7 -14 -13 -14q-4 0 -14 4l-176 70q-16 6 -16 13q0 4 5 14l31 61q8 14 14 14q2 0 14 -6l163 -96q13 -8 13 -14q0 -4 -5 -14z" />
    <glyph glyph-name="a" unicode="a" horiz-adv-x="500" 
d="M421 350v-173q0 -44 10 -84h43q8 0 11 -3t3 -11v-65q0 -8 -2.5 -11t-11.5 -3h-125q-5 0 -9 1t-7 4.5t-4.5 5.5t-3.5 7.5t-2.5 8t-2 8.5t-1.5 8q-18 -18 -27 -26t-38.5 -21t-63.5 -13q-69 0 -109.5 41.5t-40.5 112.5q0 40 13 71t38 48.5t49 28.5t59.5 15t54 5t47.5 1v31
q0 38 -13.5 56t-57.5 18q-33 0 -78 -15t-46 -15q-8 0 -10 10l-20 61q0 1 -1 3.5t-1.5 4.5t-0.5 4q0 17 58.5 32t117.5 15q91 0 131.5 -40t40.5 -121zM301 114v110h-10h-14.5t-16.5 -0.5t-19.5 -2t-19 -4.5t-19 -7t-16.5 -10t-14 -14t-8.5 -18.5t-3.5 -23.5q0 -29 19 -48.5
t47 -19.5q37 0 75 38z" />
    <glyph glyph-name="b" unicode="b" horiz-adv-x="537" 
d="M197 377v-273q29 -21 62 -21q109 0 109 171q0 157 -90 157q-10 0 -19.5 -2t-16 -4t-15 -7t-11.5 -7t-11 -8zM197 703v-236q65 44 123 44q49 0 84.5 -20.5t54.5 -56.5t27.5 -78.5t8.5 -94.5q0 -129 -54 -203.5t-153 -74.5q-12 0 -23 1.5t-18.5 3t-16 5.5t-13.5 6t-11.5 7
t-9 7t-8.5 7.5t-7 6.5q-16 -44 -29 -44q-6 0 -14 2l-80 20q-10 2 -10 8q0 3 7 18t11 34q4 20 4 62v497h-50q-9 0 -11.5 3t-2.5 11v65q0 8 2.5 11t11.5 3h163q9 0 11.5 -3t2.5 -11z" />
    <glyph glyph-name="c" unicode="c" horiz-adv-x="426" 
d="M373 100l26 -66q3 -9 3 -10q0 -15 -46.5 -28t-93.5 -13q-106 0 -164 64.5t-58 189.5q0 128 62 201t174 73q42 0 82.5 -12t40.5 -31v-135q0 -9 -3 -11.5t-11 -2.5h-72q-8 0 -11 2.5t-3 11.5v74q-11 4 -24 4q-52 0 -76 -40t-24 -127q0 -85 23.5 -123t79.5 -38q30 0 59 11
l29 11q4 0 7 -5z" />
    <glyph glyph-name="d" unicode="d" 
d="M531 79v-65q0 -8 -2.5 -11t-11.5 -3h-134q-7 0 -10.5 0.5t-6 4t-3.5 6t-4 11.5l-5 15q-68 -54 -141 -54q-84 0 -127.5 64t-43.5 180q0 141 49 212.5t143 71.5q53 0 102 -30v143h-51q-9 0 -11.5 3t-2.5 11v65q0 8 2.5 11t11.5 3h164q9 0 11.5 -3t2.5 -11v-526
q0 -52 10 -84h44q9 0 11.5 -3t2.5 -11zM336 118v273q-40 20 -77 20q-53 0 -71.5 -39t-18.5 -128q0 -87 18 -124t66 -37t83 35z" />
    <glyph glyph-name="e" unicode="e" horiz-adv-x="500" 
d="M442 213h-269q0 -125 110 -125q32 0 60 8t45.5 16.5t21.5 8.5q7 0 11 -8l25 -60q3 -9 3 -11q0 -20 -60 -39.5t-119 -19.5q-104 0 -164 63.5t-60 195.5q0 120 59.5 194.5t159.5 74.5q200 0 200 -273q0 -15 -4.5 -20t-18.5 -5zM173 306h157q0 112 -72 112q-74 0 -85 -107
v-5z" />
    <glyph glyph-name="f" unicode="f" horiz-adv-x="389" 
d="M340 72v-51q0 -13 -4 -17t-17 -4h-256q-13 0 -17 4t-4 17v51q0 13 4 17t17 4h61v308h-71q-13 0 -17 4t-4 17v51q0 13 4 17t17 4h71v41q0 189 160 189q38 0 80 -11t42 -25q0 -3 -2 -9l-18 -70q-2 -10 -9 -10q-2 0 -25 8.5t-45 8.5q-26 0 -38.5 -11.5t-15 -26t-2.5 -43.5
v-41h114q17 0 17 -10q0 -2 -2 -10l-14 -59q-3 -14 -19 -14h-96v-308h68q13 0 17 -4t4 -17z" />
    <glyph glyph-name="g" unicode="g" horiz-adv-x="519" 
d="M454 343v-149q0 -34 2.5 -116t2.5 -109q0 -181 -193 -181q-59 0 -133 18.5t-74 34.5q0 8 4 20l19 61q3 10 11 10q3 0 25.5 -10t60 -19.5t76.5 -9.5q50 0 66 19.5t16 65.5q0 21 -1 44l-2 22q-57 -38 -121 -38q-83 0 -127 65t-44 179q0 121 50 191t139 70q13 0 25 -1.5
t20.5 -3.5t18.5 -6t15 -6.5t13 -8t10.5 -7.5t9.5 -8l7 -6q4 12 15 29.5t20 17.5q4 0 10 -2l78 -29q9 -4 9 -9q0 -4 -7 -20t-14 -44.5t-7 -63.5zM334 140v236q-39 30 -79 30q-86 0 -86 -152q0 -148 80 -148q47 0 85 34z" />
    <glyph glyph-name="h" unicode="h" horiz-adv-x="593" 
d="M559 79v-65q0 -8 -2.5 -11t-11.5 -3h-164q-9 0 -11.5 3t-2.5 11v308q0 84 -56 84q-41 0 -86 -42v-271h51q9 0 11.5 -3t2.5 -11v-65q0 -8 -2.5 -11t-11.5 -3h-229q-9 0 -11.5 3t-2.5 11v65q0 8 2.5 11t11.5 3h51v531h-50q-9 0 -11.5 3t-2.5 11v65q0 8 2.5 11t11.5 3h163
q9 0 11.5 -3t2.5 -11v-249q21 17 33 25.5t42.5 20t63.5 11.5q74 0 102 -42t28 -116v-260h51q9 0 11.5 -3t2.5 -11z" />
    <glyph glyph-name="i" unicode="i" horiz-adv-x="333" 
d="M313 79v-65q0 -8 -2.5 -11t-11.5 -3h-255q-9 0 -11.5 3t-2.5 11v65q0 8 2.5 11t11.5 3h64v308h-65q-9 0 -11.5 3t-2.5 11v65q0 8 2.5 11t11.5 3h178q9 0 11.5 -3t2.5 -11v-387h64q9 0 11.5 -3t2.5 -11zM253 642q0 -34 -24 -58.5t-58 -24.5q-35 0 -59 24.5t-24 58.5t24 58
t59 24q34 0 58 -24t24 -58z" />
    <glyph glyph-name="j" unicode="j" horiz-adv-x="296" 
d="M229 480v-486q0 -118 -34.5 -173.5t-136.5 -55.5q-40 0 -75 8.5t-35 19.5q0 4 2 10l22 75q2 6 8 6l23 -7q23 -7 41 -7q20 0 32.5 8.5t17.5 28.5t6.5 38t1.5 51v405h-78q-9 0 -11.5 3t-2.5 11v65q0 8 2.5 11t11.5 3h191q9 0 11.5 -3t2.5 -11zM246 642q0 -34 -24 -58.5
t-58 -24.5t-58.5 24.5t-24.5 58.5t24 58t59 24q34 0 58 -24t24 -58z" />
    <glyph glyph-name="k" unicode="k" horiz-adv-x="574" 
d="M556 79v-65q0 -8 -2.5 -11t-11.5 -3h-124q-12 0 -19 10l-172 234h-2v-151h51q9 0 11.5 -3t2.5 -11v-65q0 -8 -2.5 -11t-11.5 -3h-229q-9 0 -11.5 3t-2.5 11v65q0 8 2.5 11t11.5 3h51v531h-50q-9 0 -11.5 3t-2.5 11v65q0 8 2.5 11t11.5 3h163q9 0 11.5 -3t2.5 -11v-406
l125 102v2h-41q-9 0 -11.5 3t-2.5 11v65q0 8 2.5 11t11.5 3h221q9 0 11.5 -3t2.5 -11v-65q0 -8 -2.5 -11t-11.5 -3h-52l-141 -120l156 -188h49q9 0 11.5 -3t2.5 -11z" />
    <glyph glyph-name="l" unicode="l" horiz-adv-x="296" 
d="M72 176v448h-50q-9 0 -11.5 3t-2.5 11v65q0 8 2.5 11t11.5 3h163q9 0 11.5 -3t2.5 -11v-545q0 -21 1 -31t7.5 -19.5t19.5 -9.5q12 0 25 4.5t14 4.5q6 0 8 -6l20 -82q2 -4 2 -8q0 -10 -32.5 -19t-68.5 -9q-30 0 -52 7t-35 23.5t-20.5 31t-11 41.5t-4 43t-0.5 47z" />
    <glyph glyph-name="m" unicode="m" horiz-adv-x="833" 
d="M810 79v-65q0 -8 -2.5 -11t-11.5 -3h-164q-9 0 -11.5 3t-2.5 11v308q0 84 -42 84t-86 -41v-272h51q9 0 11.5 -3t2.5 -11v-65q0 -8 -2.5 -11t-11.5 -3h-164q-9 0 -11.5 3t-2.5 11v308q0 84 -42 84t-86 -41v-272h51q9 0 11.5 -3t2.5 -11v-65q0 -8 -2.5 -11t-11.5 -3h-229
q-9 0 -11.5 3t-2.5 11v65q0 8 2.5 11t11.5 3h51v223q0 50 -10 85h-48q-14 0 -14 14v65q0 8 2.5 11t11.5 3h139q5 0 9 -1.5t7 -5t5 -6.5t4 -9.5t2.5 -9.5t2 -10.5t2.5 -9.5q26 22 37.5 31.5t45.5 23.5t70 14q34 0 63.5 -19.5t38.5 -49.5q1 0 9.5 8t10.5 9.5t11 8.5t13 9.5
t13.5 8.5t16 8.5t16.5 6.5t19 5.5t20.5 3t23.5 1.5q65 0 90.5 -42t25.5 -116v-260h51q9 0 11.5 -3t2.5 -11z" />
    <glyph glyph-name="n" unicode="n" horiz-adv-x="593" 
d="M569 79v-65q0 -8 -2.5 -11t-11.5 -3h-164q-9 0 -11.5 3t-2.5 11v308q0 84 -56 84q-42 0 -86 -41v-272h51q9 0 11.5 -3t2.5 -11v-65q0 -8 -2.5 -11t-11.5 -3h-229q-9 0 -11.5 3t-2.5 11v65q0 8 2.5 11t11.5 3h51v223q0 50 -10 85h-48q-14 0 -14 14v65q0 8 2.5 11t11.5 3
h139q8 0 14 -5.5t8 -11.5t5.5 -18.5t4.5 -16.5q26 22 37.5 31.5t45.5 23.5t70 14q74 0 102 -42t28 -116v-260h51q9 0 11.5 -3t2.5 -11z" />
    <glyph glyph-name="o" unicode="o" horiz-adv-x="519" 
d="M259 83q48 0 65 41.5t17 122.5q0 79 -17 121.5t-65 42.5t-65 -42.5t-17 -121.5q0 -80 17 -122t65 -42zM476 247q0 -121 -58 -192.5t-159 -71.5t-159 71.5t-58 192.5t58 192.5t159 71.5q100 0 158.5 -71.5t58.5 -192.5z" />
    <glyph glyph-name="p" unicode="p" 
d="M290 -123v-65q0 -8 -2.5 -11t-11.5 -3h-229q-9 0 -11.5 3t-2.5 11v65q0 8 2.5 11t11.5 3h51v423q0 76 -10 87h-47q-9 0 -11.5 3t-2.5 11v65q0 8 2.5 11t11.5 3h139q6 0 10 -1.5t7 -5.5t4 -6.5t3 -10t3 -10.5q1 1 10.5 8t14 9.5t15.5 9t19.5 9.5t20.5 7.5t25.5 6t27.5 1.5
q84 0 128.5 -65t44.5 -190q0 -273 -184 -273q-54 0 -104 26v-118h51q9 0 11.5 -3t2.5 -11zM225 373v-271q34 -19 73 -19q51 0 69.5 38t18.5 130q0 81 -18 120.5t-63 39.5q-39 0 -80 -38z" />
    <glyph glyph-name="q" unicode="q" horiz-adv-x="519" 
d="M523 -123v-65q0 -8 -2.5 -11t-11.5 -3h-229q-9 0 -11.5 3t-2.5 11v65q0 8 2.5 11t11.5 3h51v118q-50 -26 -104 -26q-184 0 -184 273q0 125 44.5 190t128.5 65q37 0 67 -10.5t39.5 -18t26.5 -22.5q1 9 14 30t23 21l15 -3l74 -25q12 -5 12 -12q0 -2 -7.5 -16.5t-14.5 -50.5
t-7 -90v-423h51q9 0 11.5 -3t2.5 -11zM331 102v271q-36 33 -80 33q-45 0 -63 -38.5t-18 -116.5q0 -92 18.5 -130t69.5 -38q39 0 73 19z" />
    <glyph glyph-name="r" unicode="r" horiz-adv-x="407" 
d="M309 79v-65q0 -8 -2.5 -11t-11.5 -3h-232q-9 0 -11.5 3t-2.5 11v65q0 8 2.5 11t11.5 3h51v223q0 43 -10 85h-48q-9 0 -11.5 3t-2.5 11v65q0 8 2.5 11t11.5 3h130q7 0 13 -3.5t9.5 -11.5t5.5 -13.5t5 -18t4 -15.5q1 1 9 11.5t12 14.5l14 14t18 15.5t19.5 11.5t24.5 9t27 3
q22 0 40 -6.5t18 -16.5q0 -6 -2 -10l-31 -84q-3 -9 -8 -9q-1 0 -17 5.5t-30 5.5q-31 0 -76 -48v-255h54q9 0 11.5 -3t2.5 -11z" />
    <glyph glyph-name="s" unicode="s" horiz-adv-x="426" 
d="M267 362v50q-36 3 -38 3q-66 0 -66 -50q0 -25 23 -38.5t67 -28t71 -32.5q67 -45 67 -122q0 -70 -46.5 -115.5t-124.5 -45.5q-52 0 -114.5 17.5t-62.5 40.5v109q0 8 3 11t11 3h68q9 0 11.5 -3.5t2.5 -14.5v-49q39 -14 71 -14q61 0 61 50q0 26 -25 41t-70 30t-69 31
q-59 39 -59 113q0 70 49 116.5t128 46.5q47 0 92.5 -12t45.5 -34v-103q0 -8 -2.5 -11t-10.5 -3h-69q-8 0 -11 3t-3 11z" />
    <glyph glyph-name="t" unicode="t" horiz-adv-x="370" 
d="M217 401v-242q0 -21 1 -31t9 -20t24 -10q23 0 49 9.5t30 9.5q6 0 8 -6l20 -82q2 -6 2 -9q0 -13 -45 -25t-96 -12q-24 0 -42.5 4t-32 13.5t-23 19t-15.5 26t-9.5 28.5t-4.5 33.5t-1.5 33.5t-0.5 35v225h-71q-9 0 -11.5 3t-2.5 11v65q0 8 2.5 11t11.5 3h71v126q0 10 3 13.5
t13 4.5l88 12q1 0 5.5 0.5t7.5 0.5q10 0 10 -17v-140h114q18 0 18 -10q0 -2 -2 -10l-14 -59q-3 -14 -19 -14h-97z" />
    <glyph glyph-name="u" unicode="u" horiz-adv-x="574" 
d="M549 79v-65q0 -8 -2.5 -11t-11.5 -3h-133q-7 0 -12 2.5t-8 8t-4.5 10t-4 13.5t-3.5 13q-3 -3 -14.5 -13.5t-17 -15t-19.5 -13t-26.5 -12t-32.5 -7t-43 -3.5q-74 0 -102 42t-28 116v260h-51q-9 0 -11.5 3t-2.5 11v65q0 8 2.5 11t11.5 3h164q9 0 11.5 -3t2.5 -11v-308
q0 -89 56 -89q42 0 86 41v277h-51q-9 0 -11.5 3t-2.5 11v65q0 8 2.5 11t11.5 3h164q9 0 11.5 -3t2.5 -11v-302q0 -50 10 -85h42q14 0 14 -14z" />
    <glyph glyph-name="v" unicode="v" horiz-adv-x="500" 
d="M451 401l-142 -405q-3 -9 -6 -11t-13 -2h-82q-10 0 -13 2t-6 11l-140 405h-33q-9 0 -11.5 3t-2.5 11v65q0 8 2.5 11t11.5 3h125q13 0 18 -14l62 -222q18 -62 32 -145h2q13 75 34 145l68 222q5 14 18 14h110q9 0 11.5 -3t2.5 -11v-65q0 -8 -2.5 -11t-11.5 -3h-34z" />
    <glyph glyph-name="w" unicode="w" horiz-adv-x="722" 
d="M663 401l-121 -404q-3 -10 -6 -12t-13 -2h-78q-15 0 -18 16l-49 262q-8 43 -13 112h-2q-2 -26 -18 -112l-60 -262q-3 -16 -18 -16h-78q-10 0 -13 2t-6 12l-105 404h-32q-9 0 -11.5 3t-2.5 11v65q0 8 2.5 11t11.5 3h120q9 0 12.5 -3t5.5 -12l44 -212q11 -50 22 -169h2
q2 65 19 156l46 224q2 11 5 13.5t14 2.5h89q11 0 14 -2.5t5 -13.5l44 -224q17 -88 19 -156h2q11 122 22 169l49 212q2 9 5.5 12t12.5 3h110q9 0 11.5 -3t2.5 -11v-65q0 -8 -2.5 -11t-11.5 -3h-32z" />
    <glyph glyph-name="x" unicode="x" horiz-adv-x="519" 
d="M493 79v-65q0 -8 -2.5 -11t-11.5 -3h-101q-15 0 -22 12l-59 89q-7 10 -21 33t-18 28q-4 -5 -18 -28t-21 -33l-59 -89q-7 -12 -22 -12h-101q-9 0 -11.5 3t-2.5 11v65q0 8 2.5 11t11.5 3h38l109 156l-109 152h-34q-9 0 -11.5 3t-2.5 11v65q0 8 2.5 11t11.5 3h98
q14 0 22 -12l58 -84q16 -23 39 -62q13 23 39 62l58 84q8 12 22 12h98q9 0 11.5 -3t2.5 -11v-65q0 -8 -2.5 -11t-11.5 -3h-34l-109 -152l109 -156h38q9 0 11.5 -3t2.5 -11z" />
    <glyph glyph-name="y" unicode="y" horiz-adv-x="519" 
d="M466 401l-81 -297q-37 -150 -67 -222q-37 -94 -147 -94q-41 0 -88.5 16t-47.5 30q0 4 4 12l30 65q3 7 9 7q1 0 30 -12.5t55 -12.5q36 0 52.5 18t27.5 56l10 33h-42q-14 0 -18 13l-134 388h-32q-9 0 -11.5 3t-2.5 11v65q0 8 2.5 11t11.5 3h126q7 0 10.5 -1.5t4.5 -4
t3 -9.5l64 -238q22 -83 38 -173h2q7 58 33 173l54 238q2 10 5 12.5t13 2.5h121q8 0 11 -2.5t3 -11.5v-65q0 -8 -2.5 -11t-11.5 -3h-35z" />
    <glyph glyph-name="z" unicode="z" horiz-adv-x="463" 
d="M439 115l-43 -102q-6 -13 -13 -13h-333q-10 0 -10 10v75l231 304h-110v-40q0 -13 -7 -13h-86q-7 0 -7 13v131q0 14 14 14h317q17 0 17 -10v-78l-226 -301h145l22 53q3 8 9 8q5 0 12 -3l62 -27q10 -4 10 -10q0 -2 -0.5 -4t-2 -4t-1.5 -3z" />
    <glyph glyph-name="braceleft" unicode="{" horiz-adv-x="444" 
d="M388 -117v-64q0 -12 -3.5 -16.5t-14.5 -4.5q-98 0 -149 43t-51 141v149q0 38 -16 55t-52 17h-18q-13 0 -16.5 4t-3.5 17v66q0 13 3.5 17t16.5 4h18q36 0 52 17t16 55v150q0 98 51 141t149 43q11 0 14.5 -4.5t3.5 -16.5v-64q0 -12 -3.5 -16t-16.5 -4q-16 0 -25 -1.5
t-21.5 -7.5t-18.5 -21.5t-6 -39.5v-164q0 -52 -17 -77t-56 -43q39 -19 56 -44t17 -78v-163q0 -24 6 -39.5t18.5 -21.5t21.5 -7.5t25 -1.5q13 0 16.5 -4t3.5 -16z" />
    <glyph glyph-name="bar" unicode="|" horiz-adv-x="400" 
d="M250 733v-966q0 -11 -3 -14t-14 -3h-66q-11 0 -14 3t-3 14v966q0 11 3 14t14 3h66q11 0 14 -3t3 -14z" />
    <glyph glyph-name="braceright" unicode="}" horiz-adv-x="444" 
d="M274 131v-149q0 -98 -51 -141t-149 -43q-11 0 -14.5 4.5t-3.5 16.5v64q0 12 3.5 16t16.5 4q16 0 25 1.5t21.5 7.5t18.5 21.5t6 39.5v163q0 53 17 78t56 44q-39 18 -56 43t-17 77v164q0 24 -6 39.5t-18.5 21.5t-21.5 7.5t-25 1.5q-13 0 -16.5 4t-3.5 16v64q0 12 3.5 16.5
t14.5 4.5q98 0 149 -43t51 -141v-150q0 -38 16 -55t52 -17h18q13 0 16.5 -4t3.5 -17v-66q0 -13 -3.5 -17t-16.5 -4h-18q-36 0 -52 -17t-16 -55z" />
    <glyph glyph-name="asciitilde" unicode="~" 
d="M470 342h60q0 -28 -4.5 -55t-16.5 -59.5t-39 -52.5t-66 -20q-51 0 -120 41l-38 22q-75 46 -108 46q-45 0 -54 -88q-1 -4 -1 -6h-60q0 28 4.5 55t16.5 59.5t39 52.5t66 20q51 0 120 -41l38 -22q75 -46 108 -46q45 0 54 88q1 4 1 6z" />
    <glyph glyph-name="uni00A0" unicode="&#xa0;" horiz-adv-x="296" 
 />
    <glyph glyph-name="exclamdown" unicode="&#xa1;" horiz-adv-x="352" 
d="M225 216l22 -391q1 -17 1 -20q0 -13 -20 -13h-107q-18 0 -18 13q0 3 1 20l22 391q1 14 5 17t16 3h57q12 0 16 -3t5 -17zM260 426q0 -34 -25 -59t-59 -25q-36 0 -60.5 25t-24.5 59q0 36 24.5 60.5t60.5 24.5q35 0 59.5 -25t24.5 -60z" />
    <glyph glyph-name="cent" unicode="&#xa2;" 
d="M300 176v325q-34 -10 -54 -46t-20 -123q0 -136 74 -156zM360 71v-51q0 -13 -4 -16.5t-17 -3.5h-18q-13 0 -17 3.5t-4 16.5v51q-35 3 -67 15.5t-64 39.5t-51 79t-19 122q0 59 13 105.5t33 75t48 48.5t53.5 28.5t53.5 12.5v54q0 13 4 17t17 4h18q13 0 17 -4t4 -17v-54
q22 0 67.5 -14t45.5 -29q0 -6 -3 -9l-38 -70q-2 -4 -5 -4t-28 15t-39 15v-325q18 3 33 8.5t22.5 9.5t8.5 4q4 0 7 -5l28 -70q0 -1 1 -3q2 -4 2 -6q0 -16 -38 -28.5t-64 -14.5z" />
    <glyph glyph-name="sterling" unicode="&#xa3;" 
d="M553 85l-17 -68q-4 -17 -23 -17h-435q-14 0 -17.5 4t-3.5 17v67q0 13 4 16.5t17 3.5h70q13 65 13 87q0 28 -14 101h-80q-13 0 -16.5 4t-3.5 17v51q0 13 3.5 17t16.5 4h61q-13 56 -13 92q0 97 62.5 150.5t163.5 53.5q66 0 122 -21t56 -40q0 -7 -2 -9l-33 -63
q-5 -10 -13 -10q-2 0 -44.5 19t-82.5 19q-49 0 -79 -27t-30 -80q0 -36 16 -84h137q13 0 16.5 -4t3.5 -17v-51q0 -13 -3.5 -17t-16.5 -4h-121q14 -58 14 -101q0 -37 -9 -87h263q20 0 20 -11q0 -4 -2 -12z" />
    <glyph glyph-name="currency" unicode="&#xa4;" 
d="M72 108l-30 30l67 67q-47 51 -47 136q0 79 48 138l-70 70l32 31l69 -68q64 46 137 46q72 0 136 -46l69 68l32 -31l-70 -70q48 -49 48 -138q0 -83 -47 -136l67 -67l-30 -30l-66 66q-63 -47 -139 -47q-80 0 -140 47zM278 517q-72 0 -123.5 -52t-51.5 -124t51.5 -122.5
t123.5 -50.5q71 0 122.5 51t51.5 122q0 72 -51 124t-123 52z" />
    <glyph glyph-name="yen" unicode="&#xa5;" 
d="M429 75v-54q0 -13 -4 -17t-17 -4h-251q-13 0 -17 4t-4 17v54q0 13 4 17t17 4h68v150h-174q-13 0 -16.5 3.5t-3.5 16.5v12q0 13 3.5 16.5t16.5 3.5h163l-24 51h-138q-13 0 -17 4t-4 16v12q0 13 4 16.5t17 3.5h112l-98 188h-26q-10 0 -13.5 3.5t-3.5 13.5v62q0 10 3.5 13.5
t13.5 3.5h104q12 0 14.5 -2t7.5 -12l78 -161q22 -44 38 -114h2q13 63 37 114l78 161q5 10 7.5 12t14.5 2h104q11 0 14 -3.5t3 -13.5v-62q0 -10 -3 -13.5t-14 -3.5h-26l-102 -188h107q13 0 16.5 -3.5t3.5 -16.5v-12q0 -13 -3.5 -16.5t-16.5 -3.5h-131l-24 -51h155
q13 0 16.5 -3.5t3.5 -16.5v-12q0 -13 -3.5 -16.5t-16.5 -3.5h-164v-150h68q13 0 17 -4t4 -17z" />
    <glyph glyph-name="brokenbar" unicode="&#xa6;" horiz-adv-x="400" 
d="M250 658v-316q0 -10 -3 -13.5t-14 -3.5h-66q-10 0 -13.5 3.5t-3.5 13.5v316q0 10 3.5 13.5t13.5 3.5h66q10 0 13.5 -3.5t3.5 -13.5zM250 158v-316q0 -10 -3 -13.5t-14 -3.5h-66q-10 0 -13.5 3.5t-3.5 13.5v316q0 11 3.5 14t13.5 3h66q10 0 13.5 -3t3.5 -14z" />
    <glyph glyph-name="section" unicode="&#xa7;" 
d="M444 632l-29 -56q-4 -8 -11 -8q-2 0 -42 20.5t-74 20.5q-29 0 -48 -11.5t-19 -33.5q0 -19 24.5 -35t75 -39t82.5 -45q75 -51 75 -128q0 -94 -99 -145q22 -13 36 -24t29 -38.5t15 -62.5q0 -70 -55 -119t-133 -49q-63 0 -127.5 26t-64.5 45q0 6 3 11l32 61q4 8 9 8
q4 0 25 -14t55.5 -27.5t70.5 -13.5q27 0 42.5 14.5t15.5 38.5q0 19 -15 35t-34 26t-50 23q-7 3 -10 4q-31 14 -52.5 26t-45.5 32t-36 47.5t-12 61.5t9.5 60.5t28 43t32 25t34.5 17.5q-15 9 -23.5 15.5t-22.5 20.5t-21.5 34.5t-7.5 46.5q0 72 54 114t129 42q58 0 108.5 -21.5
t50.5 -37.5q0 -5 -4 -11zM289 219q15 8 22.5 13.5t20.5 16.5t19.5 24.5t6.5 28.5q0 10 -4.5 19.5t-10 16t-17 14.5t-17.5 11.5t-19.5 10.5t-16.5 9q-53 -31 -67 -54q-9 -14 -9 -30q0 -9 3 -17t10.5 -15.5t13 -12.5t17 -11.5t16.5 -9t18 -8t14 -6.5z" />
    <glyph glyph-name="dieresis" unicode="&#xa8;" horiz-adv-x="335" 
d="M149 652q0 -28 -20.5 -48.5t-48.5 -20.5t-48.5 20.5t-20.5 48.5q0 29 20 49t49 20q28 0 48.5 -20.5t20.5 -48.5zM326 652q0 -28 -20 -48.5t-49 -20.5t-49 20.5t-20 48.5q0 29 20 49t49 20t49 -20.5t20 -48.5z" />
    <glyph glyph-name="copyright" unicode="&#xa9;" 
d="M362 437l21 1q-2 -15 -3.5 -23t-8 -24t-16 -25.5t-28.5 -17t-45 -7.5q-56 0 -92.5 38t-36.5 96q0 60 38.5 102t84.5 42q23 0 44 -8t27 -8q5 0 17 15h15v-102l-15 -3q-1 1 -4.5 11t-5 13t-5.5 12t-7 13t-7.5 11t-9 10.5t-10.5 7.5t-12.5 5.5t-13.5 1.5q-71 0 -71 -122
q0 -52 19 -82t55 -30q56 0 70 73zM275 252q-95 0 -164.5 65.5t-69.5 159.5t69.5 159.5t164.5 65.5t164.5 -65.5t69.5 -159.5t-69.5 -159.5t-164.5 -65.5zM76 477q0 -79 58.5 -134.5t140.5 -55.5t140.5 55.5t58.5 134.5q0 80 -58.5 135t-140.5 55t-140.5 -55t-58.5 -135z" />
    <glyph glyph-name="ordfeminine" unicode="&#xaa;" horiz-adv-x="481" 
d="M404 397v-42q0 -14 -15 -14h-89q-4 0 -7.5 1t-6 3.5t-4.5 4t-3.5 5.5t-2 5.5t-1.5 6.5l-1 5q-1 -1 -4 -4.5t-5 -5t-5.5 -4.5t-6 -5t-7 -5t-8.5 -5t-9.5 -4t-11 -3t-12.5 -2t-14 -1q-47 0 -77 27.5t-30 74.5q0 24 8.5 43t19 31t31 21t32.5 12.5t36 6t30 3t24 0.5v17
q0 26 -9 36t-38 10q-25 0 -55 -7.5t-33 -7.5q-4 0 -6 6l-14 41q-2 6 -2 7q0 11 39 21t82 10q73 0 99.5 -28.5t26.5 -78.5v-117q0 -23 6 -50h28q15 0 15 -14zM265 417v80q-91 0 -91 -56q0 -20 12 -31.5t31 -11.5q26 0 48 19z" />
    <glyph glyph-name="guillemotleft" unicode="&#xab;" horiz-adv-x="593" 
d="M299 37l-50 -31q-12 -6 -14 -6q-5 0 -14 12l-169 224q-6 8 -6 14t6 14l169 219q9 11 14 11q2 0 14 -6l50 -31q13 -8 13 -15q0 -5 -7 -14l-124 -184l124 -178q6 -10 6 -14q0 -8 -12 -15zM534 37l-50 -31q-12 -6 -14 -6q-5 0 -14 12l-169 224q-6 8 -6 14t6 14l169 219
q9 11 14 11q2 0 14 -6l50 -31q13 -8 13 -15q0 -5 -7 -14l-124 -184l124 -178q6 -10 6 -14q0 -8 -12 -15z" />
    <glyph glyph-name="logicalnot" unicode="&#xac;" 
d="M505 369v-225q0 -10 -3.5 -13.5t-13.5 -3.5h-66q-10 0 -13.5 3.5t-3.5 13.5v142h-338q-11 0 -14 3t-3 14v66q0 10 3.5 13.5t13.5 3.5h421q10 0 13.5 -3t3.5 -14z" />
    <glyph glyph-name="uni00AD" unicode="&#xad;" horiz-adv-x="370" 
d="M328 292v-73q0 -13 -4 -17t-17 -4h-244q-13 0 -17 4t-4 17v73q0 14 4 17.5t17 3.5h244q13 0 17 -3.5t4 -17.5z" />
    <glyph glyph-name="registered" unicode="&#xae;" 
d="M280 252q-95 0 -164.5 65.5t-69.5 159.5t69.5 159.5t164.5 65.5t164.5 -65.5t69.5 -159.5t-69.5 -159.5t-164.5 -65.5zM81 477q0 -79 58.5 -134.5t140.5 -55.5t140.5 55.5t58.5 134.5t-58.5 134.5t-140.5 55.5t-140.5 -55.5t-58.5 -134.5zM164 353v19q23 2 30 8.5t7 31.5
v143q0 23 -6 28t-31 8v20h122q53 0 81 -13.5t28 -51.5q0 -23 -14 -37.5t-25.5 -18.5t-33.5 -9q27 -16 38.5 -39.5t15.5 -38t14 -14.5q16 0 16 33h20q0 -24 -12 -46.5t-41 -22.5t-42.5 19t-15 42t-12.5 42t-36 19h-11v-60q0 -28 5.5 -33.5t32.5 -9.5v-19h-130zM256 553v-57
h21q57 0 57 45q0 50 -43 50q-16 0 -24 -5t-9.5 -11.5t-1.5 -21.5z" />
    <glyph glyph-name="macron" unicode="&#xaf;" horiz-adv-x="335" 
d="M290 673v-42q0 -13 -3.5 -16.5t-16.5 -3.5h-205q-12 0 -16 3.5t-4 16.5v42q0 13 3.5 16.5t16.5 3.5h205q13 0 16.5 -3.5t3.5 -16.5z" />
    <glyph glyph-name="degree" unicode="&#xb0;" 
d="M435 544q0 -65 -46.5 -111t-111.5 -46t-111 46t-46 111q0 66 46.5 112t110.5 46q66 0 112 -46t46 -112zM277 469q32 0 54 22t22 53q0 32 -22.5 54t-53.5 22t-53 -22t-22 -54t22 -53.5t53 -21.5z" />
    <glyph glyph-name="plusminus" unicode="&#xb1;" 
d="M505 23v-66q0 -11 -3.5 -14t-13.5 -3h-420q-10 0 -13.5 3t-3.5 14v66q0 10 3.5 13.5t13.5 3.5h420q10 0 13.5 -3t3.5 -14zM328 207v-114q0 -11 -3 -14t-14 -3h-66q-11 0 -14 3t-3 14v114h-160q-10 0 -13.5 3.5t-3.5 13.5v66q0 10 3.5 13.5t13.5 3.5h160v160q0 11 3 14
t14 3h66q11 0 14 -3t3 -14v-160h160q10 0 13.5 -3.5t3.5 -13.5v-66q0 -10 -3.5 -13.5t-13.5 -3.5h-160z" />
    <glyph glyph-name="twosuperior" unicode="&#xb2;" horiz-adv-x="370" 
d="M312 324v-39q0 -11 -3.5 -14.5t-14.5 -3.5h-231q-14 0 -14 16q0 62 20 100q16 30 44.5 54.5t52.5 38t42.5 35t18.5 47.5q0 45 -46 45q-20 0 -33 -9t-17.5 -20.5t-10.5 -20.5t-13 -9q-6 0 -12 3l-38 13q-11 2 -11 13q0 30 37.5 67.5t104.5 37.5q59 0 94 -30t35 -87
q0 -26 -6.5 -47t-22.5 -38.5t-27 -27t-36 -26.5t-33 -23q-41 -31 -43 -57h145q11 0 14.5 -3.5t3.5 -14.5z" />
    <glyph glyph-name="threesuperior" unicode="&#xb3;" horiz-adv-x="370" 
d="M89 574l-34 29q-6 4 -6 10q0 9 14 23.5t43.5 28t63.5 13.5q57 0 94 -29.5t37 -79.5q0 -11 -1 -20t-4.5 -16.5t-5.5 -12.5t-8.5 -11.5t-9 -8.5t-11 -8.5t-10.5 -8.5q15 -9 21 -13t18.5 -16t18 -29.5t5.5 -41.5q0 -58 -44 -92t-107 -34q-39 0 -83 12t-44 26q0 1 0.5 3
t1.5 4.5t1 3.5l12 40q3 10 11 10q2 0 33 -12t61 -12q68 0 68 55q0 53 -77 53h-19q-11 0 -15 3.5t-4 13.5v40q0 11 4 14.5t15 3.5h20q63 0 63 48q0 18 -12.5 29t-32.5 11q-19 0 -32.5 -8.5t-21.5 -17t-13 -8.5t-10 5z" />
    <glyph glyph-name="acute" unicode="&#xb4;" horiz-adv-x="335" 
d="M299 638l-176 -70q-10 -4 -14 -4q-6 0 -13 14l-16 32q-5 10 -5 14q0 6 13 14l163 96q12 6 14 6q6 0 14 -14l31 -61q5 -10 5 -14q0 -7 -16 -13z" />
    <glyph glyph-name="mu" unicode="&#xb5;" horiz-adv-x="574" 
d="M299 -123v-65q0 -8 -2.5 -11t-11.5 -3h-234q-9 0 -11.5 3t-2.5 11v65q0 8 2.5 11t11.5 3h51v510h-51q-9 0 -11.5 3t-2.5 11v65q0 8 2.5 11t11.5 3h164q9 0 11.5 -3t2.5 -11v-308q0 -89 56 -89q42 0 86 41v277h-51q-9 0 -11.5 3t-2.5 11v65q0 8 2.5 11t11.5 3h164
q9 0 11.5 -3t2.5 -11v-302q0 -50 10 -85h42q14 0 14 -14v-65q0 -8 -2.5 -11t-11.5 -3h-133q-7 0 -12 2.5t-8 8t-4.5 10t-4 13.5t-3.5 13q-1 -2 -10 -13t-12.5 -15t-13 -13t-17 -12.5t-20 -7t-25.5 -3.5q-24 0 -58 17v-109h56q9 0 11.5 -3t2.5 -11z" />
    <glyph glyph-name="paragraph" unicode="&#xb6;" horiz-adv-x="704" 
d="M591 595v-761q0 -13 -3.5 -16.5t-16.5 -3.5h-60q-13 0 -16.5 3.5t-3.5 16.5v761h-68v-761q0 -13 -3.5 -16.5t-16.5 -3.5h-60q-13 0 -16.5 3.5t-3.5 16.5v327q-32 -8 -61 -8q-105 0 -161.5 70t-56.5 194q0 72 16.5 124t40.5 79t63.5 42.5t72 19t79.5 3.5h332q13 0 17 -3.5
t4 -16.5v-50q0 -13 -4 -16.5t-17 -3.5h-57zM323 251v344q-24 0 -39.5 -1.5t-35 -6.5t-32 -16t-23.5 -28.5t-16.5 -46.5t-5.5 -67q0 -96 25.5 -139.5t88.5 -43.5q16 0 38 5z" />
    <glyph glyph-name="periodcentered" unicode="&#xb7;" 
d="M354 256q0 -31 -22.5 -53.5t-53.5 -22.5q-32 0 -54.5 22.5t-22.5 53.5q0 32 22.5 54.5t54.5 22.5q31 0 53.5 -22.5t22.5 -54.5z" />
    <glyph glyph-name="cedilla" unicode="&#xb8;" horiz-adv-x="335" 
d="M192 0l-4 -52q25 0 48 -17.5t23 -54.5q0 -40 -29 -64t-80 -24q-73 0 -73 18q0 4 2 12l7 34q2 8 6 8l14 -4q14 -3 28 -3t23 6.5t9 16.5q0 23 -43 23q-19 0 -19 11q0 7 2 21l5 69h81z" />
    <glyph glyph-name="onesuperior" unicode="&#xb9;" horiz-adv-x="370" 
d="M311 315v-30q0 -11 -4 -14.5t-15 -3.5h-188q-11 0 -15 3.5t-4 14.5v30q0 10 4 13.5t15 3.5h56v231l-52 -26q-8 -4 -12 -4q-6 0 -13 11l-17 26q-5 8 -5 11q0 4 11 13l115 74h45q11 0 14.5 -3.5t3.5 -13.5v-319h42q11 0 15 -3.5t4 -13.5z" />
    <glyph glyph-name="ordmasculine" unicode="&#xba;" horiz-adv-x="444" 
d="M371 509q0 -80 -39.5 -128t-109.5 -48t-109.5 47.5t-39.5 128.5q0 80 39.5 128t109.5 48t109.5 -48t39.5 -128zM222 408q30 0 39.5 26t9.5 75t-10 75t-39 26t-39 -26t-10 -75t9.5 -75t39.5 -26z" />
    <glyph glyph-name="guillemotright" unicode="&#xbb;" horiz-adv-x="593" 
d="M541 236l-169 -224q-9 -12 -14 -12q-2 0 -14 6l-50 31q-12 7 -12 15q0 4 6 14l124 178l-124 184q-7 9 -7 14q0 7 13 15l50 31q12 6 14 6q5 0 14 -11l169 -219q6 -8 6 -14t-6 -14zM306 236l-169 -224q-9 -12 -14 -12q-2 0 -14 6l-50 31q-12 7 -12 15q0 4 6 14l124 178
l-124 184q-7 9 -7 14q0 7 13 15l50 31q12 6 14 6q5 0 14 -11l169 -219q6 -8 6 -14t-6 -14z" />
    <glyph glyph-name="onequarter" unicode="&#xbc;" horiz-adv-x="870" 
d="M778 77v-69q0 -11 -3.5 -14.5t-14.5 -3.5h-53q-11 0 -15 3.5t-4 14.5v69h-151q-12 0 -15.5 3t-3.5 14v63l160 244q8 10 13 10q2 0 6 -1.5t5 -1.5l38 -14q14 -7 14 -13q0 -2 -5 -12l-144 -222h83l10 89q1 10 5 13t14 3h43q10 0 14 -4t4 -14v-89h32q12 0 15.5 -3t3.5 -15
v-33q0 -10 -4 -13.5t-15 -3.5h-32zM616 659l-236 -659q-6 -17 -23 -17h-51q-21 0 -21 10q0 4 4 14l237 662q6 16 23 16h51q19 0 19 -12q0 -5 -3 -14zM299 315v-30q0 -11 -4 -14.5t-15 -3.5h-188q-11 0 -15 3.5t-4 14.5v30q0 10 4 13.5t15 3.5h56v231l-52 -26q-8 -4 -12 -4
q-6 0 -13 11l-17 26q-5 8 -5 11q0 4 11 13l115 74h45q11 0 14.5 -3.5t3.5 -13.5v-319h42q11 0 15 -3.5t4 -13.5z" />
    <glyph glyph-name="onehalf" unicode="&#xbd;" horiz-adv-x="870" 
d="M576 659l-236 -659q-6 -17 -23 -17h-51q-21 0 -21 10q0 4 4 14l237 662q6 16 23 16h51q19 0 19 -12q0 -5 -3 -14zM291 315v-30q0 -11 -4 -14.5t-15 -3.5h-188q-11 0 -15 3.5t-4 14.5v30q0 10 4 13.5t15 3.5h56v231l-52 -26q-8 -4 -12 -4q-6 0 -13 11l-17 26q-5 8 -5 11
q0 4 11 13l115 74h45q11 0 14.5 -3.5t3.5 -13.5v-319h42q11 0 15 -3.5t4 -13.5zM802 57v-39q0 -11 -3.5 -14.5t-14.5 -3.5h-231q-14 0 -14 16q0 62 20 100q16 30 44.5 54.5t52.5 38t42.5 35t18.5 47.5q0 45 -46 45q-20 0 -33 -9t-17.5 -20.5t-10.5 -20.5t-13 -9q-6 0 -12 3
l-38 13q-11 2 -11 13q0 30 37.5 67.5t104.5 37.5q59 0 94 -30t35 -87q0 -26 -6.5 -47t-22.5 -38.5t-27 -27t-36 -26.5t-33 -23q-41 -31 -43 -57h145q11 0 14.5 -3.5t3.5 -14.5z" />
    <glyph glyph-name="threequarters" unicode="&#xbe;" horiz-adv-x="870" 
d="M616 659l-236 -659q-6 -17 -23 -17h-51q-21 0 -21 10q0 4 4 14l237 662q6 16 23 16h51q19 0 19 -12q0 -5 -3 -14zM96 574l-34 29q-6 4 -6 10q0 9 14 23.5t43.5 28t63.5 13.5q57 0 94 -29.5t37 -79.5q0 -11 -1 -20t-4.5 -16.5t-5.5 -12.5t-8.5 -11.5t-9 -8.5t-11 -8.5
t-10.5 -8.5q15 -9 21 -13t18.5 -16t18 -29.5t5.5 -41.5q0 -58 -44 -92t-107 -34q-39 0 -83 12t-44 26q0 1 0.5 3t1.5 4.5t1 3.5l12 40q3 10 11 10q2 0 33 -12t61 -12q68 0 68 55q0 53 -77 53h-19q-11 0 -15 3.5t-4 13.5v40q0 11 4 14.5t15 3.5h20q63 0 63 48q0 18 -12.5 29
t-32.5 11q-19 0 -32.5 -8.5t-21.5 -17t-13 -8.5t-10 5zM784 77v-69q0 -11 -3.5 -14.5t-14.5 -3.5h-53q-11 0 -15 3.5t-4 14.5v69h-151q-12 0 -15.5 3t-3.5 14v63l160 244q8 10 13 10q2 0 6 -1.5t5 -1.5l38 -14q14 -7 14 -13q0 -2 -5 -12l-144 -222h83l10 89q1 10 5 13t14 3
h43q10 0 14 -4t4 -14v-87h32q12 0 15.5 -3t3.5 -15v-35q0 -10 -4 -13.5t-15 -3.5h-32z" />
    <glyph glyph-name="questiondown" unicode="&#xbf;" horiz-adv-x="444" 
d="M202 162v68q0 14 4 17.5t17 3.5h73q14 0 17.5 -3.5t3.5 -17.5v-125q0 -7 -3.5 -12t-11.5 -9t-14.5 -6.5t-20.5 -6.5l-21 -6q-71 -24 -71 -87q0 -71 83 -71q27 0 56 8.5t47.5 16.5t21.5 8q8 0 12 -10l25 -68q2 -6 2 -11q0 -19 -66.5 -39t-119.5 -20q-90 0 -143 52t-53 135
q0 37 12 67t27 47.5t41.5 33t41 21t40.5 14.5zM341 427q0 -36 -24.5 -60.5t-60.5 -24.5q-35 0 -59.5 25t-24.5 60q0 34 25 59t59 25q36 0 60.5 -25t24.5 -59z" />
    <glyph glyph-name="Agrave" unicode="&#xc0;" horiz-adv-x="630" 
d="M615 75v-54q0 -13 -4 -17t-17 -4h-208q-13 0 -17 4t-4 17v54q0 13 4 17t17 4h32l-23 87h-172l-22 -87h33q13 0 17 -4t4 -17v-54q0 -13 -4 -17t-17 -4h-198q-13 0 -17 4t-4 17v54q0 13 4 17t17 4h30l175 573q3 11 6.5 13.5t15.5 2.5h104q12 0 15.5 -2.5t6.5 -13.5
l171 -573h34q13 0 17 -4t4 -17zM370 273l-41 172q-9 33 -22 140h-2q-7 -78 -23 -140l-44 -172h132zM403 801l-16 -32q-7 -14 -13 -14q-4 0 -14 4l-176 70q-16 6 -16 13q0 4 5 14l31 61q8 14 14 14q2 0 14 -6l163 -96q13 -8 13 -14q0 -4 -5 -14z" />
    <glyph glyph-name="Aacute" unicode="&#xc1;" horiz-adv-x="630" 
d="M615 75v-54q0 -13 -4 -17t-17 -4h-208q-13 0 -17 4t-4 17v54q0 13 4 17t17 4h32l-23 87h-172l-22 -87h33q13 0 17 -4t4 -17v-54q0 -13 -4 -17t-17 -4h-198q-13 0 -17 4t-4 17v54q0 13 4 17t17 4h30l175 573q3 11 6.5 13.5t15.5 2.5h104q12 0 15.5 -2.5t6.5 -13.5
l171 -573h34q13 0 17 -4t4 -17zM370 273l-41 172q-9 33 -22 140h-2q-7 -78 -23 -140l-44 -172h132zM447 829l-176 -70q-10 -4 -14 -4q-6 0 -13 14l-16 32q-5 10 -5 14q0 6 13 14l163 96q12 6 14 6q6 0 14 -14l31 -61q5 -10 5 -14q0 -7 -16 -13z" />
    <glyph glyph-name="Acircumflex" unicode="&#xc2;" horiz-adv-x="630" 
d="M615 75v-54q0 -13 -4 -17t-17 -4h-208q-13 0 -17 4t-4 17v54q0 13 4 17t17 4h32l-23 87h-172l-22 -87h33q13 0 17 -4t4 -17v-54q0 -13 -4 -17t-17 -4h-198q-13 0 -17 4t-4 17v54q0 13 4 17t17 4h30l175 573q3 11 6.5 13.5t15.5 2.5h104q12 0 15.5 -2.5t6.5 -13.5
l171 -573h34q13 0 17 -4t4 -17zM370 273l-41 172q-9 33 -22 140h-2q-7 -78 -23 -140l-44 -172h132zM449 800l-19 -32q-8 -13 -14 -13q-4 0 -14 6l-86 49l-86 -49q-10 -6 -14 -6q-6 0 -14 13l-19 32q-6 9 -6 14q0 4 12 14l113 89q11 8 14 8t14 -8l113 -89q12 -10 12 -14
q0 -5 -6 -14z" />
    <glyph glyph-name="Atilde" unicode="&#xc3;" horiz-adv-x="630" 
d="M615 75v-54q0 -13 -4 -17t-17 -4h-208q-13 0 -17 4t-4 17v54q0 13 4 17t17 4h32l-23 87h-172l-22 -87h33q13 0 17 -4t4 -17v-54q0 -13 -4 -17t-17 -4h-198q-13 0 -17 4t-4 17v54q0 13 4 17t17 4h30l175 573q3 11 6.5 13.5t15.5 2.5h104q12 0 15.5 -2.5t6.5 -13.5
l171 -573h34q13 0 17 -4t4 -17zM370 273l-41 172q-9 33 -22 140h-2q-7 -78 -23 -140l-44 -172h132zM416 906l47 -24q7 -5 7 -9q0 -2 -4 -11.5t-12.5 -23.5t-20 -27t-30 -22.5t-38.5 -9.5q-27 0 -56 17.5t-40 17.5q-13 0 -22 -9t-14 -18t-9 -9t-9 3l-47 24q-7 3 -7 8
q0 2 3.5 11t11.5 23.5t19.5 27.5t29.5 22.5t39 9.5q28 0 59.5 -17.5t42.5 -17.5q15 0 27 18t16 18q3 0 7 -2z" />
    <glyph glyph-name="Adieresis" unicode="&#xc4;" horiz-adv-x="630" 
d="M615 75v-54q0 -13 -4 -17t-17 -4h-208q-13 0 -17 4t-4 17v54q0 13 4 17t17 4h32l-23 87h-172l-22 -87h33q13 0 17 -4t4 -17v-54q0 -13 -4 -17t-17 -4h-198q-13 0 -17 4t-4 17v54q0 13 4 17t17 4h30l175 573q3 11 6.5 13.5t15.5 2.5h104q12 0 15.5 -2.5t6.5 -13.5
l171 -573h34q13 0 17 -4t4 -17zM370 273l-41 172q-9 33 -22 140h-2q-7 -78 -23 -140l-44 -172h132zM297 843q0 -29 -20.5 -49t-48.5 -20t-48.5 20t-20.5 49t20 49t49 20q28 0 48.5 -20t20.5 -49zM474 843q0 -29 -20 -49t-49 -20t-49 20t-20 49t20 49t49 20t49 -20.5
t20 -48.5z" />
    <glyph glyph-name="Aring" unicode="&#xc5;" horiz-adv-x="630" 
d="M615 75v-54q0 -13 -4 -17t-17 -4h-208q-13 0 -17 4t-4 17v54q0 13 4 17t17 4h32l-23 87h-172l-22 -87h33q13 0 17 -4t4 -17v-54q0 -13 -4 -17t-17 -4h-198q-13 0 -17 4t-4 17v54q0 13 4 17t17 4h30l175 573q3 11 6.5 13.5t15.5 2.5h104q12 0 15.5 -2.5t6.5 -13.5
l171 -573h34q13 0 17 -4t4 -17zM370 273l-41 172q-9 33 -22 140h-2q-7 -78 -23 -140l-44 -172h132zM421 859q0 -43 -31 -73.5t-74 -30.5t-73.5 30.5t-30.5 73.5q0 44 30.5 74.5t73.5 30.5t74 -30.5t31 -74.5zM316 817q18 0 30.5 12t12.5 30t-12.5 30.5t-30.5 12.5t-30 -12
t-12 -31q0 -18 12.5 -30t29.5 -12z" />
    <glyph glyph-name="AE" unicode="&#xc6;" horiz-adv-x="815" 
d="M401 273v347h-2q-45 -128 -51 -142l-85 -205h138zM771 178v-157q0 -13 -3.5 -17t-16.5 -4h-401q-13 0 -17 4t-4 17v54q0 13 4 17t17 4h51v87h-168l-32 -87h52q13 0 17 -4t4 -17v-54q0 -13 -4 -17t-17 -4h-217q-13 0 -17 4t-4 17v54q0 13 4 17t17 4h30l245 573
q3 11 6.5 13.5t15.5 2.5h417q13 0 17 -3t4 -14v-152q0 -13 -4.5 -17t-16.5 -4h-66q-13 0 -17 4t-4 17v61h-127v-165h170q14 0 17.5 -4t3.5 -17v-66q0 -13 -4 -17t-17 -4h-170v-196h127v70q0 13 3.5 17t17.5 4h66q14 0 17.5 -3.5t3.5 -17.5z" />
    <glyph glyph-name="Ccedilla" unicode="&#xc7;" horiz-adv-x="519" 
d="M330 -17l-3 -39q75 -9 75 -75q0 -40 -30.5 -65t-83.5 -25q-75 0 -75 19q0 5 1 9l9 40q3 4 5 4q1 0 7 -1.5t16 -3.5t21 -2q30 0 30 25q0 24 -40 24q-22 0 -22 11v0l1 7l8 79q-97 5 -153.5 95t-56.5 252q0 175 68 270t201 95q57 0 112.5 -20t55.5 -46v-134
q0 -10 -3.5 -13.5t-13.5 -3.5h-74q-11 0 -14 3.5t-3 13.5v83q-26 9 -53 9q-71 0 -102.5 -52t-31.5 -179q0 -55 3.5 -94.5t12.5 -74.5t24.5 -56.5t41 -34t60.5 -12.5q31 0 53 5v90q0 10 3.5 13.5t13.5 3.5h74q10 0 13.5 -3.5t3.5 -13.5v-145q0 -21 -56 -39.5t-98 -18.5z" />
    <glyph glyph-name="Egrave" unicode="&#xc8;" horiz-adv-x="537" 
d="M481 178v-157q0 -13 -3.5 -17t-16.5 -4h-401q-13 0 -17 4t-4 17v54q0 13 4 17t17 4h51v493h-51q-13 0 -17 4t-4 17v54q0 13 4 17t17 4h400q13 0 17 -3t4 -14v-152q0 -13 -4.5 -17t-16.5 -4h-66q-13 0 -17 4t-4 17v61h-127v-165h170q14 0 17.5 -4t3.5 -17v-66
q0 -13 -4 -17t-17 -4h-170v-196h127v70q0 13 3.5 17t17.5 4h66q14 0 17.5 -3.5t3.5 -17.5zM356 801l-16 -32q-7 -14 -13 -14q-4 0 -14 4l-176 70q-16 6 -16 13q0 4 5 14l31 61q8 14 14 14q2 0 14 -6l163 -96q13 -8 13 -14q0 -4 -5 -14z" />
    <glyph glyph-name="Eacute" unicode="&#xc9;" horiz-adv-x="537" 
d="M481 178v-157q0 -13 -3.5 -17t-16.5 -4h-401q-13 0 -17 4t-4 17v54q0 13 4 17t17 4h51v493h-51q-13 0 -17 4t-4 17v54q0 13 4 17t17 4h400q13 0 17 -3t4 -14v-152q0 -13 -4.5 -17t-16.5 -4h-66q-13 0 -17 4t-4 17v61h-127v-165h170q14 0 17.5 -4t3.5 -17v-66
q0 -13 -4 -17t-17 -4h-170v-196h127v70q0 13 3.5 17t17.5 4h66q14 0 17.5 -3.5t3.5 -17.5zM400 829l-176 -70q-10 -4 -14 -4q-6 0 -13 14l-16 32q-5 10 -5 14q0 6 13 14l163 96q12 6 14 6q6 0 14 -14l31 -61q5 -10 5 -14q0 -7 -16 -13z" />
    <glyph glyph-name="Ecircumflex" unicode="&#xca;" horiz-adv-x="537" 
d="M481 178v-157q0 -13 -3.5 -17t-16.5 -4h-401q-13 0 -17 4t-4 17v54q0 13 4 17t17 4h51v493h-51q-13 0 -17 4t-4 17v54q0 13 4 17t17 4h400q13 0 17 -3t4 -14v-152q0 -13 -4.5 -17t-16.5 -4h-66q-13 0 -17 4t-4 17v61h-127v-165h170q14 0 17.5 -4t3.5 -17v-66
q0 -13 -4 -17t-17 -4h-170v-196h127v70q0 13 3.5 17t17.5 4h66q14 0 17.5 -3.5t3.5 -17.5zM402 800l-19 -32q-8 -13 -14 -13q-4 0 -14 6l-86 49l-86 -49q-10 -6 -14 -6q-6 0 -14 13l-19 32q-6 9 -6 14q0 4 12 14l113 89q11 8 14 8t14 -8l113 -89q12 -10 12 -14q0 -5 -6 -14z
" />
    <glyph glyph-name="Edieresis" unicode="&#xcb;" horiz-adv-x="537" 
d="M481 178v-157q0 -13 -3.5 -17t-16.5 -4h-401q-13 0 -17 4t-4 17v54q0 13 4 17t17 4h51v493h-51q-13 0 -17 4t-4 17v54q0 13 4 17t17 4h400q13 0 17 -3t4 -14v-152q0 -13 -4.5 -17t-16.5 -4h-66q-13 0 -17 4t-4 17v61h-127v-165h170q14 0 17.5 -4t3.5 -17v-66
q0 -13 -4 -17t-17 -4h-170v-196h127v70q0 13 3.5 17t17.5 4h66q14 0 17.5 -3.5t3.5 -17.5zM250 843q0 -29 -20 -49t-49 -20t-49 20t-20 49t20 49t49 20t49 -20t20 -49zM427 843q0 -29 -20.5 -49t-48.5 -20t-48.5 20t-20.5 49t20 49t49 20t49 -20.5t20 -48.5z" />
    <glyph glyph-name="Igrave" unicode="&#xcc;" horiz-adv-x="370" 
d="M324 75v-54q0 -13 -4 -17t-17 -4h-237q-13 0 -17 4t-4 17v54q0 13 4 17t17 4h51v493h-51q-13 0 -17 4t-4 17v54q0 13 4 17t17 4h237q13 0 17 -4t4 -17v-54q0 -13 -4 -17t-17 -4h-51v-493h51q13 0 17 -4t4 -17zM273 801l-16 -32q-7 -14 -13 -14q-4 0 -14 4l-176 70
q-16 6 -16 13q0 4 5 14l31 61q8 14 14 14q2 0 14 -6l163 -96q13 -8 13 -14q0 -4 -5 -14z" />
    <glyph glyph-name="Iacute" unicode="&#xcd;" horiz-adv-x="370" 
d="M324 75v-54q0 -13 -4 -17t-17 -4h-237q-13 0 -17 4t-4 17v54q0 13 4 17t17 4h51v493h-51q-13 0 -17 4t-4 17v54q0 13 4 17t17 4h237q13 0 17 -4t4 -17v-54q0 -13 -4 -17t-17 -4h-51v-493h51q13 0 17 -4t4 -17zM317 829l-176 -70q-10 -4 -14 -4q-6 0 -13 14l-16 32
q-5 10 -5 14q0 6 13 14l163 96q12 6 14 6q6 0 14 -14l31 -61q5 -10 5 -14q0 -7 -16 -13z" />
    <glyph glyph-name="Icircumflex" unicode="&#xce;" horiz-adv-x="370" 
d="M324 75v-54q0 -13 -4 -17t-17 -4h-237q-13 0 -17 4t-4 17v54q0 13 4 17t17 4h51v493h-51q-13 0 -17 4t-4 17v54q0 13 4 17t17 4h237q13 0 17 -4t4 -17v-54q0 -13 -4 -17t-17 -4h-51v-493h51q13 0 17 -4t4 -17zM319 800l-19 -32q-8 -13 -14 -13q-4 0 -14 6l-86 49l-86 -49
q-10 -6 -14 -6q-6 0 -14 13l-19 32q-6 9 -6 14q0 4 12 14l113 89q11 8 14 8t14 -8l113 -89q12 -10 12 -14q0 -5 -6 -14z" />
    <glyph glyph-name="Idieresis" unicode="&#xcf;" horiz-adv-x="370" 
d="M324 75v-54q0 -13 -4 -17t-17 -4h-237q-13 0 -17 4t-4 17v54q0 13 4 17t17 4h51v493h-51q-13 0 -17 4t-4 17v54q0 13 4 17t17 4h237q13 0 17 -4t4 -17v-54q0 -13 -4 -17t-17 -4h-51v-493h51q13 0 17 -4t4 -17zM167 843q0 -29 -20.5 -49t-48.5 -20t-48.5 20t-20.5 49
t20 49t49 20q28 0 48.5 -20t20.5 -49zM344 843q0 -29 -20 -49t-49 -20t-49 20t-20 49t20 49t49 20t49 -20.5t20 -48.5z" />
    <glyph glyph-name="Eth" unicode="&#xd0;" horiz-adv-x="611" 
d="M52 685h229q76 0 127 -14.5t89.5 -51t56.5 -104t18 -169.5q0 -105 -20 -174.5t-61 -106.5t-91 -51t-122 -14h-227q-13 0 -17 4t-4 17v54q0 13 4 17t17 4h51v215h-49q-13 0 -16.5 3.5t-3.5 16.5v50q0 12 3.5 16t16.5 4h49v188h-51q-13 0 -17 4t-4 17v54q0 13 4 17t18 4z
M237 108h38q87 0 121 50t34 190q0 132 -34.5 180.5t-120.5 48.5h-38v-176h103q13 0 16.5 -3.5t3.5 -16.5v-50q0 -13 -3 -16.5t-17 -3.5h-103v-203z" />
    <glyph glyph-name="Ntilde" unicode="&#xd1;" horiz-adv-x="667" 
d="M577 589v-568q0 -13 -3.5 -17t-17.5 -4h-66q-16 0 -23 14l-184 341q-35 64 -59 136h-2q0 -15 2.5 -50t2.5 -60v-285h50q13 0 17 -4t4 -17v-54q0 -13 -4 -17t-17 -4h-216q-13 0 -17 4t-4 17v54q0 13 4 17t17 4h51v493h-51q-13 0 -17 4t-4 17v54q0 13 4 17t17 4h154
q11 0 14.5 -2t8.5 -11l166 -310q39 -75 60 -145h2q0 16 -2 65t-2 65v242h-50q-13 0 -17 4t-4 17v54q0 13 4 17t17 4h216q13 0 17 -4t4 -17v-54q0 -13 -4 -17t-17 -4h-51zM434 906l47 -24q7 -5 7 -9q0 -2 -4 -11.5t-12.5 -23.5t-20 -27t-30 -22.5t-38.5 -9.5q-27 0 -56 17.5
t-40 17.5q-13 0 -22 -9t-14 -18t-9 -9t-9 3l-47 24q-7 3 -7 8q0 2 3.5 11t11.5 23.5t19.5 27.5t29.5 22.5t39 9.5q28 0 59.5 -17.5t42.5 -17.5q15 0 27 18t16 18q3 0 7 -2z" />
    <glyph glyph-name="Ograve" unicode="&#xd2;" horiz-adv-x="593" 
d="M545 342q0 -178 -65 -268.5t-184 -90.5t-184 90.5t-65 268.5q0 179 65.5 269.5t183.5 90.5t183.5 -91t65.5 -269zM296 88q107 0 107 254q0 255 -107 255t-107 -255q0 -254 107 -254zM384 801l-16 -32q-7 -14 -13 -14q-4 0 -14 4l-176 70q-16 6 -16 13q0 4 5 14l31 61
q8 14 14 14q2 0 14 -6l163 -96q13 -8 13 -14q0 -4 -5 -14z" />
    <glyph glyph-name="Oacute" unicode="&#xd3;" horiz-adv-x="593" 
d="M545 342q0 -178 -65 -268.5t-184 -90.5t-184 90.5t-65 268.5q0 179 65.5 269.5t183.5 90.5t183.5 -91t65.5 -269zM296 88q107 0 107 254q0 255 -107 255t-107 -255q0 -254 107 -254zM428 829l-176 -70q-10 -4 -14 -4q-6 0 -13 14l-16 32q-5 10 -5 14q0 6 13 14l163 96
q12 6 14 6q6 0 14 -14l31 -61q5 -10 5 -14q0 -7 -16 -13z" />
    <glyph glyph-name="Ocircumflex" unicode="&#xd4;" horiz-adv-x="593" 
d="M545 342q0 -178 -65 -268.5t-184 -90.5t-184 90.5t-65 268.5q0 179 65.5 269.5t183.5 90.5t183.5 -91t65.5 -269zM296 88q107 0 107 254q0 255 -107 255t-107 -255q0 -254 107 -254zM430 800l-19 -32q-8 -13 -14 -13q-4 0 -14 6l-86 49l-86 -49q-10 -6 -14 -6
q-6 0 -14 13l-19 32q-6 9 -6 14q0 4 12 14l113 89q11 8 14 8t14 -8l113 -89q12 -10 12 -14q0 -5 -6 -14z" />
    <glyph glyph-name="Otilde" unicode="&#xd5;" horiz-adv-x="593" 
d="M545 342q0 -178 -65 -268.5t-184 -90.5t-184 90.5t-65 268.5q0 179 65.5 269.5t183.5 90.5t183.5 -91t65.5 -269zM296 88q107 0 107 254q0 255 -107 255t-107 -255q0 -254 107 -254zM397 906l47 -24q7 -5 7 -9q0 -2 -4 -11.5t-12.5 -23.5t-20 -27t-30 -22.5t-38.5 -9.5
q-26 0 -55 17.5t-41 17.5q-18 0 -30 -18t-15 -18q-5 0 -9 3l-47 24q-7 3 -7 8q0 2 3.5 11t11.5 23.5t19.5 27.5t29.5 22.5t39 9.5q28 0 59.5 -17.5t42.5 -17.5q15 0 27 18t16 18q3 0 7 -2z" />
    <glyph glyph-name="Odieresis" unicode="&#xd6;" horiz-adv-x="593" 
d="M545 342q0 -178 -65 -268.5t-184 -90.5t-184 90.5t-65 268.5q0 179 65.5 269.5t183.5 90.5t183.5 -91t65.5 -269zM296 88q107 0 107 254q0 255 -107 255t-107 -255q0 -254 107 -254zM278 843q0 -29 -20 -49t-49 -20t-49 20t-20 49t20 49t49 20t49 -20t20 -49zM455 843
q0 -29 -20.5 -49t-48.5 -20t-48.5 20t-20.5 49t20 49t49 20t49 -20.5t20 -48.5z" />
    <glyph glyph-name="multiply" unicode="&#xd7;" 
d="M462 119l-47 -47q-8 -8 -12 -8q-6 0 -12 8l-113 115l-113 -115q-6 -8 -12 -8q-4 0 -12 8l-48 47q-7 5 -7 12q0 5 7 12l115 113l-115 113q-7 5 -7 12q0 5 7 12l48 48q7 7 11 7q6 0 13 -7l113 -115l113 115q7 7 12 7t12 -7l47 -47q8 -8 8 -12q0 -7 -8 -13l-114 -113
l114 -113q8 -8 8 -11q0 -5 -8 -13z" />
    <glyph glyph-name="Oslash" unicode="&#xd8;" horiz-adv-x="593" 
d="M518 697l-42 -83q69 -87 69 -272q0 -178 -65 -268.5t-184 -90.5q-83 0 -133 38l-42 -78q-7 -13 -14 -13q-4 0 -14 4l-31 16q-14 9 -14 14q0 6 5 14l54 102q-60 90 -60 262q0 179 65.5 269.5t183.5 90.5q67 0 122 -31l32 60q8 14 13 14q4 0 14 -5l32 -16q14 -7 14 -13
q0 -7 -5 -14zM195 211l165 349q-26 37 -64 37q-107 0 -107 -255q0 -108 4 -131h2zM390 473l-163 -346q26 -39 69 -39q107 0 107 254q0 74 -11 131h-2z" />
    <glyph glyph-name="Ugrave" unicode="&#xd9;" horiz-adv-x="685" 
d="M584 589v-357q0 -121 -53.5 -185t-187.5 -64t-187.5 64t-53.5 185v357h-51q-13 0 -17 4t-4 17v54q0 13 4 17t17 4h236q13 0 17 -4t4 -17v-54q0 -13 -4 -17t-17 -4h-50v-357q0 -33 2.5 -53.5t12 -43t32.5 -33.5t59 -11t59 11t32.5 33.5t12 43t2.5 53.5v357h-50
q-13 0 -17 4t-4 17v54q0 13 4 17t17 4h236q13 0 17 -4t4 -17v-54q0 -13 -4 -17t-17 -4h-51zM430 801l-16 -32q-7 -14 -13 -14q-4 0 -14 4l-176 70q-16 6 -16 13q0 4 5 14l31 61q8 14 14 14q2 0 14 -6l163 -96q13 -8 13 -14q0 -4 -5 -14z" />
    <glyph glyph-name="Uacute" unicode="&#xda;" horiz-adv-x="685" 
d="M584 589v-357q0 -121 -53.5 -185t-187.5 -64t-187.5 64t-53.5 185v357h-51q-13 0 -17 4t-4 17v54q0 13 4 17t17 4h236q13 0 17 -4t4 -17v-54q0 -13 -4 -17t-17 -4h-50v-357q0 -33 2.5 -53.5t12 -43t32.5 -33.5t59 -11t59 11t32.5 33.5t12 43t2.5 53.5v357h-50
q-13 0 -17 4t-4 17v54q0 13 4 17t17 4h236q13 0 17 -4t4 -17v-54q0 -13 -4 -17t-17 -4h-51zM474 829l-176 -70q-10 -4 -14 -4q-6 0 -13 14l-16 32q-5 10 -5 14q0 6 13 14l163 96q12 6 14 6q6 0 14 -14l31 -61q5 -10 5 -14q0 -7 -16 -13z" />
    <glyph glyph-name="Ucircumflex" unicode="&#xdb;" horiz-adv-x="685" 
d="M584 589v-357q0 -121 -53.5 -185t-187.5 -64t-187.5 64t-53.5 185v357h-51q-13 0 -17 4t-4 17v54q0 13 4 17t17 4h236q13 0 17 -4t4 -17v-54q0 -13 -4 -17t-17 -4h-50v-357q0 -33 2.5 -53.5t12 -43t32.5 -33.5t59 -11t59 11t32.5 33.5t12 43t2.5 53.5v357h-50
q-13 0 -17 4t-4 17v54q0 13 4 17t17 4h236q13 0 17 -4t4 -17v-54q0 -13 -4 -17t-17 -4h-51zM476 800l-19 -32q-8 -13 -14 -13q-4 0 -14 6l-86 49l-86 -49q-10 -6 -14 -6q-6 0 -14 13l-19 32q-6 9 -6 14q0 4 12 14l113 89q11 8 14 8t14 -8l113 -89q12 -10 12 -14q0 -5 -6 -14
z" />
    <glyph glyph-name="Udieresis" unicode="&#xdc;" horiz-adv-x="685" 
d="M584 589v-357q0 -121 -53.5 -185t-187.5 -64t-187.5 64t-53.5 185v357h-51q-13 0 -17 4t-4 17v54q0 13 4 17t17 4h236q13 0 17 -4t4 -17v-54q0 -13 -4 -17t-17 -4h-50v-357q0 -33 2.5 -53.5t12 -43t32.5 -33.5t59 -11t59 11t32.5 33.5t12 43t2.5 53.5v357h-50
q-13 0 -17 4t-4 17v54q0 13 4 17t17 4h236q13 0 17 -4t4 -17v-54q0 -13 -4 -17t-17 -4h-51zM324 843q0 -29 -20 -49t-49 -20t-49 20t-20 49t20 49t49 20t49 -20t20 -49zM501 843q0 -29 -20.5 -49t-48.5 -20t-48.5 20t-20.5 49t20 49t49 20t49 -20.5t20 -48.5z" />
    <glyph glyph-name="Yacute" unicode="&#xdd;" 
d="M439 75v-54q0 -13 -4 -17t-17 -4h-271q-13 0 -17 4t-4 17v54q0 13 4 17t17 4h68v185l-159 308h-26q-10 0 -13.5 3.5t-3.5 13.5v62q0 10 3.5 13.5t13.5 3.5h114q12 0 14.5 -2t7.5 -12l78 -161q30 -61 40 -114h2q16 65 40 114l78 161q5 10 7.5 12t14.5 2h109q11 0 14 -3.5
t3 -13.5v-62q0 -10 -3 -13.5t-14 -3.5h-32l-153 -308v-185h68q13 0 17 -4t4 -17zM410 829l-176 -70q-10 -4 -14 -4q-6 0 -13 14l-16 32q-5 10 -5 14q0 6 13 14l163 96q12 6 14 6q6 0 14 -14l31 -61q5 -10 5 -14q0 -7 -16 -13z" />
    <glyph glyph-name="Thorn" unicode="&#xde;" 
d="M334 75v-54q0 -13 -4 -17t-17 -4h-252q-13 0 -17 4t-4 17v54q0 13 4 17t17 4h51v493h-51q-13 0 -17 4t-4 17v54q0 13 4 17t17 4h236q13 0 17 -4t4 -17v-54q0 -13 -4 -17t-17 -4h-50v-52h68q117 0 165 -47t48 -135q0 -54 -20.5 -95t-54.5 -63.5t-72.5 -33.5t-80.5 -11h-53
v-56h66q13 0 17 -4t4 -17zM247 248h41q23 0 39.5 3t34 12t27 30t9.5 52t-9.5 51t-27 29.5t-34 12.5t-39.5 3h-41v-193z" />
    <glyph glyph-name="germandbls" unicode="&#xdf;" horiz-adv-x="630" 
d="M95 93v402q0 229 224 229q84 0 141 -36t57 -109q0 -34 -16 -62.5t-34.5 -44.5t-34.5 -34.5t-16 -34.5q0 -19 17 -36.5t52 -44t55 -46.5q53 -53 53 -128q0 -83 -47.5 -124t-126.5 -41q-42 0 -87.5 11t-45.5 26q0 6 1 10l17 65q3 8 9 8q1 0 37.5 -15t67.5 -15q28 0 44 15.5
t16 44.5q0 26 -18 49.5t-44 42.5t-52.5 39t-44.5 49t-18 64q0 50 48 102q18 18 24.5 26t15 24.5t8.5 32.5q0 62 -78 62q-28 0 -47.5 -7.5t-29 -17t-14.5 -28t-5.5 -30.5t-0.5 -35v-492q0 -9 -3 -11.5t-11 -2.5h-164q-14 0 -14 14v65q0 8 2.5 11t11.5 3h51z" />
    <glyph glyph-name="agrave" unicode="&#xe0;" horiz-adv-x="500" 
d="M421 350v-173q0 -44 10 -84h43q8 0 11 -3t3 -11v-65q0 -8 -2.5 -11t-11.5 -3h-125q-5 0 -9 1t-7 4.5t-4.5 5.5t-3.5 7.5t-2.5 8t-2 8.5t-1.5 8q-18 -18 -27 -26t-38.5 -21t-63.5 -13q-69 0 -109.5 41.5t-40.5 112.5q0 40 13 71t38 48.5t49 28.5t59.5 15t54 5t47.5 1v31
q0 38 -13.5 56t-57.5 18q-33 0 -78 -15t-46 -15q-8 0 -10 10l-20 61q0 1 -1 3.5t-1.5 4.5t-0.5 4q0 17 58.5 32t117.5 15q91 0 131.5 -40t40.5 -121zM301 114v110h-10h-14.5t-16.5 -0.5t-19.5 -2t-19 -4.5t-19 -7t-16.5 -10t-14 -14t-8.5 -18.5t-3.5 -23.5q0 -29 19 -48.5
t47 -19.5q37 0 75 38zM348 610l-16 -32q-7 -14 -13 -14q-4 0 -14 4l-176 70q-16 6 -16 13q0 4 5 14l31 61q8 14 14 14q2 0 14 -6l163 -96q13 -8 13 -14q0 -4 -5 -14z" />
    <glyph glyph-name="aacute" unicode="&#xe1;" horiz-adv-x="500" 
d="M421 350v-173q0 -44 10 -84h43q8 0 11 -3t3 -11v-65q0 -8 -2.5 -11t-11.5 -3h-125q-5 0 -9 1t-7 4.5t-4.5 5.5t-3.5 7.5t-2.5 8t-2 8.5t-1.5 8q-18 -18 -27 -26t-38.5 -21t-63.5 -13q-69 0 -109.5 41.5t-40.5 112.5q0 40 13 71t38 48.5t49 28.5t59.5 15t54 5t47.5 1v31
q0 38 -13.5 56t-57.5 18q-33 0 -78 -15t-46 -15q-8 0 -10 10l-20 61q0 1 -1 3.5t-1.5 4.5t-0.5 4q0 17 58.5 32t117.5 15q91 0 131.5 -40t40.5 -121zM301 114v110h-10h-14.5t-16.5 -0.5t-19.5 -2t-19 -4.5t-19 -7t-16.5 -10t-14 -14t-8.5 -18.5t-3.5 -23.5q0 -29 19 -48.5
t47 -19.5q37 0 75 38zM382 638l-176 -70q-10 -4 -14 -4q-6 0 -13 14l-16 32q-5 10 -5 14q0 6 13 14l163 96q12 6 14 6q6 0 14 -14l31 -61q5 -10 5 -14q0 -7 -16 -13z" />
    <glyph glyph-name="acircumflex" unicode="&#xe2;" horiz-adv-x="500" 
d="M421 350v-173q0 -44 10 -84h43q8 0 11 -3t3 -11v-65q0 -8 -2.5 -11t-11.5 -3h-125q-5 0 -9 1t-7 4.5t-4.5 5.5t-3.5 7.5t-2.5 8t-2 8.5t-1.5 8q-18 -18 -27 -26t-38.5 -21t-63.5 -13q-69 0 -109.5 41.5t-40.5 112.5q0 40 13 71t38 48.5t49 28.5t59.5 15t54 5t47.5 1v31
q0 38 -13.5 56t-57.5 18q-33 0 -78 -15t-46 -15q-8 0 -10 10l-20 61q0 1 -1 3.5t-1.5 4.5t-0.5 4q0 17 58.5 32t117.5 15q91 0 131.5 -40t40.5 -121zM301 114v110h-10h-14.5t-16.5 -0.5t-19.5 -2t-19 -4.5t-19 -7t-16.5 -10t-14 -14t-8.5 -18.5t-3.5 -23.5q0 -29 19 -48.5
t47 -19.5q37 0 75 38zM384 609l-19 -32q-8 -13 -14 -13q-4 0 -14 6l-86 49l-86 -49q-10 -6 -14 -6q-6 0 -14 13l-19 32q-6 9 -6 14q0 4 12 14l113 89q11 8 14 8t14 -8l113 -89q12 -10 12 -14q0 -5 -6 -14z" />
    <glyph glyph-name="atilde" unicode="&#xe3;" horiz-adv-x="500" 
d="M421 350v-173q0 -44 10 -84h43q8 0 11 -3t3 -11v-65q0 -8 -2.5 -11t-11.5 -3h-125q-5 0 -9 1t-7 4.5t-4.5 5.5t-3.5 7.5t-2.5 8t-2 8.5t-1.5 8q-18 -18 -27 -26t-38.5 -21t-63.5 -13q-69 0 -109.5 41.5t-40.5 112.5q0 40 13 71t38 48.5t49 28.5t59.5 15t54 5t47.5 1v31
q0 38 -13.5 56t-57.5 18q-33 0 -78 -15t-46 -15q-8 0 -10 10l-20 61q0 1 -1 3.5t-1.5 4.5t-0.5 4q0 17 58.5 32t117.5 15q91 0 131.5 -40t40.5 -121zM301 114v110h-10h-14.5t-16.5 -0.5t-19.5 -2t-19 -4.5t-19 -7t-16.5 -10t-14 -14t-8.5 -18.5t-3.5 -23.5q0 -29 19 -48.5
t47 -19.5q37 0 75 38zM351 715l47 -24q7 -5 7 -9q0 -2 -4 -11.5t-12.5 -23.5t-20 -27t-30 -22.5t-38.5 -9.5q-26 0 -55 17.5t-41 17.5q-18 0 -30 -18t-15 -18q-5 0 -9 3l-47 24q-7 4 -7 8q0 2 3.5 11t11.5 23.5t19.5 27.5t29.5 22.5t39 9.5q28 0 59.5 -17.5t42.5 -17.5
q15 0 27 18t16 18q3 0 7 -2z" />
    <glyph glyph-name="adieresis" unicode="&#xe4;" horiz-adv-x="500" 
d="M421 350v-173q0 -44 10 -84h43q8 0 11 -3t3 -11v-65q0 -8 -2.5 -11t-11.5 -3h-125q-5 0 -9 1t-7 4.5t-4.5 5.5t-3.5 7.5t-2.5 8t-2 8.5t-1.5 8q-18 -18 -27 -26t-38.5 -21t-63.5 -13q-69 0 -109.5 41.5t-40.5 112.5q0 40 13 71t38 48.5t49 28.5t59.5 15t54 5t47.5 1v31
q0 38 -13.5 56t-57.5 18q-33 0 -78 -15t-46 -15q-8 0 -10 10l-20 61q0 1 -1 3.5t-1.5 4.5t-0.5 4q0 17 58.5 32t117.5 15q91 0 131.5 -40t40.5 -121zM301 114v110h-10h-14.5t-16.5 -0.5t-19.5 -2t-19 -4.5t-19 -7t-16.5 -10t-14 -14t-8.5 -18.5t-3.5 -23.5q0 -29 19 -48.5
t47 -19.5q37 0 75 38zM232 652q0 -28 -20 -48.5t-49 -20.5t-49 20.5t-20 48.5q0 29 20 49t49 20t49 -20.5t20 -48.5zM409 652q0 -28 -20.5 -48.5t-48.5 -20.5t-48.5 20.5t-20.5 48.5q0 29 20 49t49 20t49 -20.5t20 -48.5z" />
    <glyph glyph-name="aring" unicode="&#xe5;" horiz-adv-x="500" 
d="M421 350v-173q0 -44 10 -84h43q8 0 11 -3t3 -11v-65q0 -8 -2.5 -11t-11.5 -3h-125q-5 0 -9 1t-7 4.5t-4.5 5.5t-3.5 7.5t-2.5 8t-2 8.5t-1.5 8q-18 -18 -27 -26t-38.5 -21t-63.5 -13q-69 0 -109.5 41.5t-40.5 112.5q0 40 13 71t38 48.5t49 28.5t59.5 15t54 5t47.5 1v31
q0 38 -13.5 56t-57.5 18q-33 0 -78 -15t-46 -15q-8 0 -10 10l-20 61q0 1 -1 3.5t-1.5 4.5t-0.5 4q0 17 58.5 32t117.5 15q91 0 131.5 -40t40.5 -121zM301 114v110h-10h-14.5t-16.5 -0.5t-19.5 -2t-19 -4.5t-19 -7t-16.5 -10t-14 -14t-8.5 -18.5t-3.5 -23.5q0 -29 19 -48.5
t47 -19.5q37 0 75 38zM356 668q0 -43 -31 -73.5t-74 -30.5t-73.5 30.5t-30.5 73.5q0 44 30.5 74.5t73.5 30.5t74 -30.5t31 -74.5zM251 626q18 0 30.5 12t12.5 30t-12.5 30.5t-30.5 12.5q-17 0 -29.5 -12.5t-12.5 -30.5t12.5 -30t29.5 -12z" />
    <glyph glyph-name="ae" unicode="&#xe6;" horiz-adv-x="741" 
d="M679 213h-260q0 -125 110 -125q38 0 77.5 16.5t40.5 16.5q7 0 11 -8l25 -60q3 -9 3 -11q0 -20 -55.5 -39.5t-114.5 -19.5q-115 0 -164 66q-22 -23 -66 -44.5t-93 -21.5q-69 0 -109.5 41.5t-40.5 112.5q0 40 13 71t37.5 48.5t48 28.5t58.5 15t53 5t46 1v31q0 38 -13.5 56
t-57.5 18q-30 0 -74 -15t-45 -15q-7 0 -10 10l-20 61q0 1 -1 3.5t-1.5 4.5t-0.5 4q0 17 57 32t114 15q81 0 123 -65q31 32 63 48.5t78 16.5q191 0 191 -273q0 -15 -4.5 -20t-18.5 -5zM419 306h148q0 112 -66 112q-71 0 -81 -107q-1 -3 -1 -5zM299 114v110h-5
q-131 2 -131 -80q0 -30 17 -49t44 -19q37 0 75 38z" />
    <glyph glyph-name="ccedilla" unicode="&#xe7;" horiz-adv-x="426" 
d="M279 -17l-3 -35q25 0 48 -17.5t23 -54.5q0 -40 -29 -64t-80 -24q-73 0 -73 18q0 4 2 12l7 34q2 8 6 8l14 -4q14 -3 28 -3t23 6.5t9 16.5q0 23 -43 23q-19 0 -19 11v7l7 73q-67 12 -113 75.5t-46 171.5q0 128 62 201t174 73q42 0 82.5 -12t40.5 -31v-135q0 -9 -3 -11.5
t-11 -2.5h-72q-8 0 -11 2.5t-3 11.5v74q-11 4 -24 4q-52 0 -76 -40t-24 -127q0 -85 23.5 -123t79.5 -38q30 0 59 11l29 11q4 0 7 -5l26 -66q3 -9 3 -10q0 -14 -43.5 -27.5t-79.5 -13.5z" />
    <glyph glyph-name="egrave" unicode="&#xe8;" horiz-adv-x="500" 
d="M442 213h-269q0 -125 110 -125q32 0 60 8t45.5 16.5t21.5 8.5q7 0 11 -8l25 -60q3 -9 3 -11q0 -20 -60 -39.5t-119 -19.5q-104 0 -164 63.5t-60 195.5q0 120 59.5 194.5t159.5 74.5q200 0 200 -273q0 -15 -4.5 -20t-18.5 -5zM173 306h157q0 112 -72 112q-74 0 -85 -107
v-5zM348 610l-16 -32q-7 -14 -13 -14q-4 0 -14 4l-176 70q-16 6 -16 13q0 4 5 14l31 61q8 14 14 14q2 0 14 -6l163 -96q13 -8 13 -14q0 -4 -5 -14z" />
    <glyph glyph-name="eacute" unicode="&#xe9;" horiz-adv-x="500" 
d="M442 213h-269q0 -125 110 -125q32 0 60 8t45.5 16.5t21.5 8.5q7 0 11 -8l25 -60q3 -9 3 -11q0 -20 -60 -39.5t-119 -19.5q-104 0 -164 63.5t-60 195.5q0 120 59.5 194.5t159.5 74.5q200 0 200 -273q0 -15 -4.5 -20t-18.5 -5zM173 306h157q0 112 -72 112q-74 0 -85 -107
v-5zM382 638l-176 -70q-10 -4 -14 -4q-6 0 -13 14l-16 32q-5 10 -5 14q0 6 13 14l163 96q12 6 14 6q6 0 14 -14l31 -61q5 -10 5 -14q0 -7 -16 -13z" />
    <glyph glyph-name="ecircumflex" unicode="&#xea;" horiz-adv-x="500" 
d="M442 213h-269q0 -125 110 -125q32 0 60 8t45.5 16.5t21.5 8.5q7 0 11 -8l25 -60q3 -9 3 -11q0 -20 -60 -39.5t-119 -19.5q-104 0 -164 63.5t-60 195.5q0 120 59.5 194.5t159.5 74.5q200 0 200 -273q0 -15 -4.5 -20t-18.5 -5zM173 306h157q0 112 -72 112q-74 0 -85 -107
v-5zM384 609l-19 -32q-8 -13 -14 -13q-4 0 -14 6l-86 49l-86 -49q-10 -6 -14 -6q-6 0 -14 13l-19 32q-6 9 -6 14q0 4 12 14l113 89q11 8 14 8t14 -8l113 -89q12 -10 12 -14q0 -5 -6 -14z" />
    <glyph glyph-name="edieresis" unicode="&#xeb;" horiz-adv-x="500" 
d="M442 213h-269q0 -125 110 -125q32 0 60 8t45.5 16.5t21.5 8.5q7 0 11 -8l25 -60q3 -9 3 -11q0 -20 -60 -39.5t-119 -19.5q-104 0 -164 63.5t-60 195.5q0 120 59.5 194.5t159.5 74.5q200 0 200 -273q0 -15 -4.5 -20t-18.5 -5zM173 306h157q0 112 -72 112q-74 0 -85 -107
v-5zM232 652q0 -28 -20 -48.5t-49 -20.5t-49 20.5t-20 48.5q0 29 20 49t49 20t49 -20.5t20 -48.5zM409 652q0 -28 -20.5 -48.5t-48.5 -20.5t-48.5 20.5t-20.5 48.5q0 29 20 49t49 20t49 -20.5t20 -48.5z" />
    <glyph glyph-name="igrave" unicode="&#xec;" horiz-adv-x="333" 
d="M313 79v-65q0 -8 -2.5 -11t-11.5 -3h-255q-9 0 -11.5 3t-2.5 11v65q0 8 2.5 11t11.5 3h64v308h-65q-9 0 -11.5 3t-2.5 11v65q0 8 2.5 11t11.5 3h178q9 0 11.5 -3t2.5 -11v-387h64q9 0 11.5 -3t2.5 -11zM254 610l-16 -32q-7 -14 -13 -14q-4 0 -14 4l-176 70q-16 6 -16 13
q0 4 5 14l31 61q8 14 14 14q2 0 14 -6l163 -96q13 -8 13 -14q0 -4 -5 -14z" />
    <glyph glyph-name="iacute" unicode="&#xed;" horiz-adv-x="333" 
d="M313 79v-65q0 -8 -2.5 -11t-11.5 -3h-255q-9 0 -11.5 3t-2.5 11v65q0 8 2.5 11t11.5 3h64v308h-65q-9 0 -11.5 3t-2.5 11v65q0 8 2.5 11t11.5 3h178q9 0 11.5 -3t2.5 -11v-387h64q9 0 11.5 -3t2.5 -11zM298 638l-176 -70q-10 -4 -14 -4q-6 0 -13 14l-16 32q-5 10 -5 14
q0 6 13 14l163 96q12 6 14 6q6 0 14 -14l31 -61q5 -10 5 -14q0 -7 -16 -13z" />
    <glyph glyph-name="icircumflex" unicode="&#xee;" horiz-adv-x="333" 
d="M313 79v-65q0 -8 -2.5 -11t-11.5 -3h-255q-9 0 -11.5 3t-2.5 11v65q0 8 2.5 11t11.5 3h64v308h-65q-9 0 -11.5 3t-2.5 11v65q0 8 2.5 11t11.5 3h178q9 0 11.5 -3t2.5 -11v-387h64q9 0 11.5 -3t2.5 -11zM300 609l-19 -32q-8 -13 -14 -13q-4 0 -14 6l-86 49l-86 -49
q-10 -6 -14 -6q-6 0 -14 13l-19 32q-6 9 -6 14q0 4 12 14l113 89q11 8 14 8t14 -8l113 -89q12 -10 12 -14q0 -5 -6 -14z" />
    <glyph glyph-name="idieresis" unicode="&#xef;" horiz-adv-x="333" 
d="M313 79v-65q0 -8 -2.5 -11t-11.5 -3h-255q-9 0 -11.5 3t-2.5 11v65q0 8 2.5 11t11.5 3h64v308h-65q-9 0 -11.5 3t-2.5 11v65q0 8 2.5 11t11.5 3h178q9 0 11.5 -3t2.5 -11v-387h64q9 0 11.5 -3t2.5 -11zM148 652q0 -28 -20 -48.5t-49 -20.5t-49 20.5t-20 48.5q0 29 20 49
t49 20t49 -20.5t20 -48.5zM325 652q0 -28 -20.5 -48.5t-48.5 -20.5t-48.5 20.5t-20.5 48.5q0 29 20 49t49 20t49 -20.5t20 -48.5z" />
    <glyph glyph-name="eth" unicode="&#xf0;" horiz-adv-x="519" 
d="M317 689l92 43q1 0 3 1q4 2 6 2q4 0 8 -9l15 -33q4 -10 4 -11q0 -4 -11 -10l-84 -39q126 -222 126 -390q0 -108 -54.5 -184t-161.5 -76t-162.5 71.5t-55.5 193.5q0 118 59 190.5t142 72.5q34 0 61 -18l2 2q-22 51 -48 95l-91 -43q-3 -2 -8 -2q-6 0 -9 8l-17 37q-3 6 -3 9
q0 4 8 8l88 41q-8 16 -20.5 32.5t-20 26.5t-7.5 14q0 10 13 12l59 7q1 0 6 0.5t7 0.5q5 0 11.5 -4t13 -11t11 -12.5t11 -14.5t7.5 -10zM260 83q52 0 70.5 42t18.5 122q0 79 -18.5 121.5t-69.5 42.5q-49 0 -66.5 -42t-17.5 -123q0 -79 17 -121t66 -42z" />
    <glyph glyph-name="ntilde" unicode="&#xf1;" horiz-adv-x="593" 
d="M569 79v-65q0 -8 -2.5 -11t-11.5 -3h-164q-9 0 -11.5 3t-2.5 11v308q0 84 -56 84q-42 0 -86 -41v-272h51q9 0 11.5 -3t2.5 -11v-65q0 -8 -2.5 -11t-11.5 -3h-229q-9 0 -11.5 3t-2.5 11v65q0 8 2.5 11t11.5 3h51v223q0 50 -10 85h-48q-14 0 -14 14v65q0 8 2.5 11t11.5 3
h139q8 0 14 -5.5t8 -11.5t5.5 -18.5t4.5 -16.5q26 22 37.5 31.5t45.5 23.5t70 14q74 0 102 -42t28 -116v-260h51q9 0 11.5 -3t2.5 -11zM397 715l47 -24q7 -5 7 -9q0 -2 -4 -11.5t-12.5 -23.5t-20 -27t-30 -22.5t-38.5 -9.5q-26 0 -55 17.5t-41 17.5q-18 0 -30 -18t-15 -18
q-5 0 -9 3l-47 24q-7 4 -7 8q0 2 3.5 11t11.5 23.5t19.5 27.5t29.5 22.5t39 9.5q28 0 59.5 -17.5t42.5 -17.5q15 0 27 18t16 18q3 0 7 -2z" />
    <glyph glyph-name="ograve" unicode="&#xf2;" horiz-adv-x="519" 
d="M259 83q48 0 65 41.5t17 122.5q0 79 -17 121.5t-65 42.5t-65 -42.5t-17 -121.5q0 -80 17 -122t65 -42zM476 247q0 -121 -58 -192.5t-159 -71.5t-159 71.5t-58 192.5t58 192.5t159 71.5q100 0 158.5 -71.5t58.5 -192.5zM357 610l-16 -32q-7 -14 -13 -14q-4 0 -14 4
l-176 70q-16 6 -16 13q0 4 5 14l31 61q8 14 14 14q2 0 14 -6l163 -96q13 -8 13 -14q0 -4 -5 -14z" />
    <glyph glyph-name="oacute" unicode="&#xf3;" horiz-adv-x="519" 
d="M259 83q48 0 65 41.5t17 122.5q0 79 -17 121.5t-65 42.5t-65 -42.5t-17 -121.5q0 -80 17 -122t65 -42zM476 247q0 -121 -58 -192.5t-159 -71.5t-159 71.5t-58 192.5t58 192.5t159 71.5q100 0 158.5 -71.5t58.5 -192.5zM391 638l-176 -70q-10 -4 -14 -4q-6 0 -13 14
l-16 32q-5 10 -5 14q0 6 13 14l163 96q12 6 14 6q6 0 14 -14l31 -61q5 -10 5 -14q0 -7 -16 -13z" />
    <glyph glyph-name="ocircumflex" unicode="&#xf4;" horiz-adv-x="519" 
d="M259 83q48 0 65 41.5t17 122.5q0 79 -17 121.5t-65 42.5t-65 -42.5t-17 -121.5q0 -80 17 -122t65 -42zM476 247q0 -121 -58 -192.5t-159 -71.5t-159 71.5t-58 192.5t58 192.5t159 71.5q100 0 158.5 -71.5t58.5 -192.5zM393 609l-19 -32q-8 -13 -14 -13q-4 0 -14 6l-86 49
l-86 -49q-10 -6 -14 -6q-6 0 -14 13l-19 32q-6 9 -6 14q0 4 12 14l113 89q11 8 14 8t14 -8l113 -89q12 -10 12 -14q0 -5 -6 -14z" />
    <glyph glyph-name="otilde" unicode="&#xf5;" horiz-adv-x="519" 
d="M259 83q48 0 65 41.5t17 122.5q0 79 -17 121.5t-65 42.5t-65 -42.5t-17 -121.5q0 -80 17 -122t65 -42zM476 247q0 -121 -58 -192.5t-159 -71.5t-159 71.5t-58 192.5t58 192.5t159 71.5q100 0 158.5 -71.5t58.5 -192.5zM360 715l47 -24q7 -5 7 -9q0 -2 -4 -11.5
t-12.5 -23.5t-20 -27t-30 -22.5t-38.5 -9.5q-27 0 -56 17.5t-40 17.5q-13 0 -22 -9t-14 -18t-9 -9t-9 3l-47 24q-7 4 -7 8q0 2 3.5 11t11.5 23.5t19.5 27.5t29.5 22.5t39 9.5q28 0 59.5 -17.5t42.5 -17.5q15 0 27 18t16 18q3 0 7 -2z" />
    <glyph glyph-name="odieresis" unicode="&#xf6;" horiz-adv-x="519" 
d="M259 83q48 0 65 41.5t17 122.5q0 79 -17 121.5t-65 42.5t-65 -42.5t-17 -121.5q0 -80 17 -122t65 -42zM476 247q0 -121 -58 -192.5t-159 -71.5t-159 71.5t-58 192.5t58 192.5t159 71.5q100 0 158.5 -71.5t58.5 -192.5zM241 652q0 -28 -20.5 -48.5t-48.5 -20.5t-48.5 20.5
t-20.5 48.5q0 29 20 49t49 20q28 0 48.5 -20.5t20.5 -48.5zM418 652q0 -28 -20 -48.5t-49 -20.5t-49 20.5t-20 48.5q0 29 20 49t49 20t49 -20.5t20 -48.5z" />
    <glyph glyph-name="divide" unicode="&#xf7;" 
d="M349 85q0 -30 -21 -50.5t-50 -20.5t-50 20.5t-21 50.5t20.5 50.5t50.5 20.5q29 0 50 -20.5t21 -50.5zM505 290v-66q0 -10 -3.5 -13.5t-13.5 -3.5h-420q-10 0 -13.5 3.5t-3.5 13.5v66q0 10 3.5 13.5t13.5 3.5h420q10 0 13.5 -3.5t3.5 -13.5zM349 429q0 -30 -20.5 -50.5
t-50.5 -20.5q-29 0 -50 20.5t-21 50.5t20.5 50.5t50.5 20.5q29 0 50 -21t21 -50z" />
    <glyph glyph-name="oslash" unicode="&#xf8;" horiz-adv-x="500" 
d="M431 503l-30 -55q66 -66 66 -201q0 -121 -58 -192.5t-159 -71.5q-56 0 -100 23l-28 -49q-7 -11 -11 -11t-12 4l-25 14q-11 6 -11 12t4 12l31 56q-65 68 -65 203q0 121 58 192.5t159 71.5q68 0 100 -23l26 45q7 11 11 11t12 -4l25 -14q12 -7 12 -12q0 -4 -5 -11zM335 351
l-132 -253q18 -15 47 -15q58 0 77.5 41.5t19.5 122.5q0 68 -12 104zM164 139l133 255q-20 17 -47 17q-57 0 -77 -42t-20 -122q0 -67 11 -108z" />
    <glyph glyph-name="ugrave" unicode="&#xf9;" horiz-adv-x="574" 
d="M549 79v-65q0 -8 -2.5 -11t-11.5 -3h-133q-7 0 -12 2.5t-8 8t-4.5 10t-4 13.5t-3.5 13q-3 -3 -14.5 -13.5t-17 -15t-19.5 -13t-26.5 -12t-32.5 -7t-43 -3.5q-74 0 -102 42t-28 116v260h-51q-9 0 -11.5 3t-2.5 11v65q0 8 2.5 11t11.5 3h164q9 0 11.5 -3t2.5 -11v-308
q0 -89 56 -89q42 0 86 41v277h-51q-9 0 -11.5 3t-2.5 11v65q0 8 2.5 11t11.5 3h164q9 0 11.5 -3t2.5 -11v-302q0 -50 10 -85h42q14 0 14 -14zM375 610l-16 -32q-7 -14 -13 -14q-4 0 -14 4l-176 70q-16 6 -16 13q0 4 5 14l31 61q8 14 14 14q2 0 14 -6l163 -96q13 -8 13 -14
q0 -4 -5 -14z" />
    <glyph glyph-name="uacute" unicode="&#xfa;" horiz-adv-x="574" 
d="M549 79v-65q0 -8 -2.5 -11t-11.5 -3h-133q-7 0 -12 2.5t-8 8t-4.5 10t-4 13.5t-3.5 13q-3 -3 -14.5 -13.5t-17 -15t-19.5 -13t-26.5 -12t-32.5 -7t-43 -3.5q-74 0 -102 42t-28 116v260h-51q-9 0 -11.5 3t-2.5 11v65q0 8 2.5 11t11.5 3h164q9 0 11.5 -3t2.5 -11v-308
q0 -89 56 -89q42 0 86 41v277h-51q-9 0 -11.5 3t-2.5 11v65q0 8 2.5 11t11.5 3h164q9 0 11.5 -3t2.5 -11v-302q0 -50 10 -85h42q14 0 14 -14zM419 638l-176 -70q-10 -4 -14 -4q-6 0 -13 14l-16 32q-5 10 -5 14q0 6 13 14l163 96q12 6 14 6q6 0 14 -14l31 -61q5 -10 5 -14
q0 -7 -16 -13z" />
    <glyph glyph-name="ucircumflex" unicode="&#xfb;" horiz-adv-x="574" 
d="M549 79v-65q0 -8 -2.5 -11t-11.5 -3h-133q-7 0 -12 2.5t-8 8t-4.5 10t-4 13.5t-3.5 13q-3 -3 -14.5 -13.5t-17 -15t-19.5 -13t-26.5 -12t-32.5 -7t-43 -3.5q-74 0 -102 42t-28 116v260h-51q-9 0 -11.5 3t-2.5 11v65q0 8 2.5 11t11.5 3h164q9 0 11.5 -3t2.5 -11v-308
q0 -89 56 -89q42 0 86 41v277h-51q-9 0 -11.5 3t-2.5 11v65q0 8 2.5 11t11.5 3h164q9 0 11.5 -3t2.5 -11v-302q0 -50 10 -85h42q14 0 14 -14zM421 609l-19 -32q-8 -13 -14 -13q-4 0 -14 6l-86 49l-86 -49q-10 -6 -14 -6q-6 0 -14 13l-19 32q-6 9 -6 14q0 4 12 14l113 89
q11 8 14 8t14 -8l113 -89q12 -10 12 -14q0 -5 -6 -14z" />
    <glyph glyph-name="udieresis" unicode="&#xfc;" horiz-adv-x="574" 
d="M549 79v-65q0 -8 -2.5 -11t-11.5 -3h-133q-7 0 -12 2.5t-8 8t-4.5 10t-4 13.5t-3.5 13q-3 -3 -14.5 -13.5t-17 -15t-19.5 -13t-26.5 -12t-32.5 -7t-43 -3.5q-74 0 -102 42t-28 116v260h-51q-9 0 -11.5 3t-2.5 11v65q0 8 2.5 11t11.5 3h164q9 0 11.5 -3t2.5 -11v-308
q0 -89 56 -89q42 0 86 41v277h-51q-9 0 -11.5 3t-2.5 11v65q0 8 2.5 11t11.5 3h164q9 0 11.5 -3t2.5 -11v-302q0 -50 10 -85h42q14 0 14 -14zM269 652q0 -28 -20.5 -48.5t-48.5 -20.5t-48.5 20.5t-20.5 48.5q0 29 20 49t49 20q28 0 48.5 -20.5t20.5 -48.5zM446 652
q0 -28 -20 -48.5t-49 -20.5t-49 20.5t-20 48.5q0 29 20 49t49 20t49 -20.5t20 -48.5z" />
    <glyph glyph-name="yacute" unicode="&#xfd;" horiz-adv-x="519" 
d="M466 401l-81 -297q-37 -150 -67 -222q-37 -94 -147 -94q-41 0 -88.5 16t-47.5 30q0 4 4 12l30 65q3 7 9 7q1 0 30 -12.5t55 -12.5q36 0 52.5 18t27.5 56l10 33h-42q-14 0 -18 13l-134 388h-32q-9 0 -11.5 3t-2.5 11v65q0 8 2.5 11t11.5 3h126q7 0 10.5 -1.5t4.5 -4
t3 -9.5l64 -238q22 -83 38 -173h2q7 58 33 173l54 238q2 10 5 12.5t13 2.5h121q8 0 11 -2.5t3 -11.5v-65q0 -8 -2.5 -11t-11.5 -3h-35zM411 638l-176 -70q-10 -4 -14 -4q-6 0 -13 14l-16 32q-5 10 -5 14q0 6 13 14l163 96q12 6 14 6q6 0 14 -14l31 -61q5 -10 5 -14
q0 -7 -16 -13z" />
    <glyph glyph-name="thorn" unicode="&#xfe;" horiz-adv-x="537" 
d="M197 374v-272q34 -19 73 -19q57 0 77.5 38t20.5 130q0 81 -20.5 120.5t-70.5 39.5q-40 0 -80 -37zM262 -123v-65q0 -8 -2.5 -11t-11.5 -3h-229q-9 0 -11.5 3t-2.5 11v65q0 8 2.5 11t11.5 3h51v646q0 76 -10 87h-47q-9 0 -11.5 3t-2.5 11v65q0 8 2.5 11t11.5 3h170
q9 0 11.5 -3t2.5 -11v-233q43 41 115 41q88 0 135.5 -65t47.5 -190q0 -273 -194 -273q-54 0 -104 26v-118h51q9 0 11.5 -3t2.5 -11z" />
    <glyph glyph-name="ydieresis" unicode="&#xff;" horiz-adv-x="519" 
d="M466 401l-81 -297q-37 -150 -67 -222q-37 -94 -147 -94q-41 0 -88.5 16t-47.5 30q0 4 4 12l30 65q3 7 9 7q1 0 30 -12.5t55 -12.5q36 0 52.5 18t27.5 56l10 33h-42q-14 0 -18 13l-134 388h-32q-9 0 -11.5 3t-2.5 11v65q0 8 2.5 11t11.5 3h126q7 0 10.5 -1.5t4.5 -4
t3 -9.5l64 -238q22 -83 38 -173h2q7 58 33 173l54 238q2 10 5 12.5t13 2.5h121q8 0 11 -2.5t3 -11.5v-65q0 -8 -2.5 -11t-11.5 -3h-35zM241 652q0 -28 -20.5 -48.5t-48.5 -20.5t-48.5 20.5t-20.5 48.5q0 29 20 49t49 20q28 0 48.5 -20.5t20.5 -48.5zM418 652
q0 -28 -20 -48.5t-49 -20.5t-49 20.5t-20 48.5q0 29 20 49t49 20t49 -20.5t20 -48.5z" />
    <glyph glyph-name="dotlessi" unicode="&#x131;" horiz-adv-x="333" 
d="M313 79v-65q0 -8 -2.5 -11t-11.5 -3h-255q-9 0 -11.5 3t-2.5 11v65q0 8 2.5 11t11.5 3h64v308h-65q-9 0 -11.5 3t-2.5 11v65q0 8 2.5 11t11.5 3h178q9 0 11.5 -3t2.5 -11v-387h64q9 0 11.5 -3t2.5 -11z" />
    <glyph glyph-name="Lslash" unicode="&#x141;" horiz-adv-x="537" 
d="M111 96v166l-58 -36q-3 -2 -8 -2q-6 0 -6 11v64q0 12 9 17l63 39v234h-51q-13 0 -17 4t-4 17v54q0 13 4 17t17 4h240q13 0 17 -4t4 -17v-54q0 -13 -4 -17t-17 -4h-54v-156l144 88q6 4 9 4q6 0 6 -11v-65q0 -11 -10 -17l-149 -92v-232h146l18 77q4 18 12 18q2 0 4.5 -0.5
t5.5 -1.5t5 -1l66 -14q18 -4 18 -13q0 -5 -2 -13l-32 -142q-2 -11 -6.5 -14.5t-15.5 -3.5h-405q-13 0 -17 4t-4 17v54q0 13 4 17t17 4h51z" />
    <glyph glyph-name="lslash" unicode="&#x142;" horiz-adv-x="352" 
d="M227 321v-163q0 -21 1 -31t7.5 -19.5t19.5 -9.5q12 0 25 4.5t14 4.5q6 0 8 -6l20 -82q2 -6 2 -8q0 -10 -32.5 -19t-68.5 -9q-30 0 -52 7t-35 23.5t-20.5 31t-11 41.5t-4 43t-0.5 47v55l-80 -57q-5 -4 -13 -4t-8 10v62q0 10 8 16l93 66v300h-50q-9 0 -11.5 3t-2.5 11v65
q0 8 2.5 11t11.5 3h163q9 0 11.5 -3t2.5 -11v-289l102 72q6 4 8 4q7 0 7 -11v-68q0 -8 -8 -12z" />
    <glyph glyph-name="OE" unicode="&#x152;" horiz-adv-x="815" 
d="M763 178v-157q0 -13 -3.5 -17t-16.5 -4h-336q-5 -1 -18 -5t-22 -6q-32 -6 -71 -6q-119 0 -184 90.5t-65 268.5q0 179 65.5 269.5t183.5 90.5q68 0 100 -17h346q13 0 17 -3t4 -14v-152q0 -13 -4.5 -17t-16.5 -4h-66q-13 0 -17 4t-4 17v61h-127v-165h170q14 0 17.5 -4
t3.5 -17v-66q0 -13 -4 -17t-17 -4h-170v-196h127v70q0 13 3.5 17t17.5 4h66q14 0 17.5 -3.5t3.5 -17.5zM393 111v463q-44 23 -87 23q-66 0 -91.5 -64t-25.5 -191q0 -254 117 -254q18 0 32 1.5t23 4.5t13.5 5t11 6.5t7.5 5.5z" />
    <glyph glyph-name="oe" unicode="&#x153;" horiz-adv-x="778" 
d="M449 306h158q0 112 -72 112q-36 0 -57 -23t-25 -44.5t-4 -44.5zM341 247q0 79 -17 121.5t-65 42.5t-65 -42.5t-17 -121.5q0 -80 17 -122t65 -42q43 0 61 43t21 121zM719 213h-270q0 -125 111 -125q32 0 60 8t45.5 16.5t21.5 8.5q7 0 11 -8l25 -60q3 -9 3 -11
q0 -20 -60 -39.5t-119 -19.5q-108 0 -146 67q-23 -33 -53 -50t-89 -17q-101 0 -159 71.5t-58 192.5t58 192.5t159 71.5q98 0 144 -61q23 20 34 29t40.5 20.5t64.5 11.5q200 0 200 -273q0 -15 -4.5 -20t-18.5 -5z" />
    <glyph glyph-name="Scaron" unicode="&#x160;" horiz-adv-x="500" 
d="M339 501v80q-36 13 -67 13q-40 0 -67 -18.5t-27 -59.5q0 -34 29.5 -56.5t87 -49t88.5 -49.5q86 -64 86 -167q0 -95 -60.5 -153t-155.5 -58q-67 0 -136.5 19t-69.5 49v151q0 10 3.5 13.5t13.5 3.5h74q10 0 13.5 -3.5t3.5 -13.5v-91q60 -20 94 -20q90 0 90 92
q0 31 -19 54.5t-43 35t-68.5 32t-73.5 38.5q-43 26 -65 61t-22 94q0 102 62.5 153t157.5 51q59 0 119 -19t60 -47v-135q0 -10 -3.5 -13.5t-13.5 -3.5h-74q-10 0 -13.5 3t-3.5 14zM378 852l-113 -89q-11 -8 -14 -8t-14 8l-113 89q-12 10 -12 14q0 5 6 14l19 32q8 13 14 13
q4 0 14 -6l86 -49l86 49q10 6 14 6q6 0 14 -13l19 -32q6 -9 6 -14q0 -4 -12 -14z" />
    <glyph glyph-name="scaron" unicode="&#x161;" horiz-adv-x="426" 
d="M267 362v50q-36 3 -38 3q-66 0 -66 -50q0 -25 23 -38.5t67 -28t71 -32.5q67 -45 67 -122q0 -70 -46.5 -115.5t-124.5 -45.5q-52 0 -114.5 17.5t-62.5 40.5v109q0 8 3 11t11 3h68q9 0 11.5 -3.5t2.5 -14.5v-49q39 -14 71 -14q61 0 61 50q0 26 -25 41t-70 30t-69 31
q-59 39 -59 113q0 70 49 116.5t128 46.5q47 0 92.5 -12t45.5 -34v-103q0 -8 -2.5 -11t-10.5 -3h-69q-8 0 -11 3t-3 11zM341 661l-113 -89q-11 -8 -14 -8t-14 8l-113 89q-12 10 -12 14q0 5 6 14l19 32q8 13 14 13q4 0 14 -6l86 -49l86 49q10 6 14 6q6 0 14 -13l19 -32
q6 -9 6 -14q0 -4 -12 -14z" />
    <glyph glyph-name="Ydieresis" unicode="&#x178;" 
d="M439 75v-54q0 -13 -4 -17t-17 -4h-271q-13 0 -17 4t-4 17v54q0 13 4 17t17 4h68v185l-159 308h-26q-10 0 -13.5 3.5t-3.5 13.5v62q0 10 3.5 13.5t13.5 3.5h114q12 0 14.5 -2t7.5 -12l78 -161q30 -61 40 -114h2q16 65 40 114l78 161q5 10 7.5 12t14.5 2h109q11 0 14 -3.5
t3 -13.5v-62q0 -10 -3 -13.5t-14 -3.5h-32l-153 -308v-185h68q13 0 17 -4t4 -17zM260 843q0 -29 -20 -49t-49 -20t-49 20t-20 49t20 49t49 20t49 -20t20 -49zM437 843q0 -29 -20.5 -49t-48.5 -20t-48.5 20t-20.5 49t20 49t49 20t49 -20.5t20 -48.5z" />
    <glyph glyph-name="Zcaron" unicode="&#x17d;" horiz-adv-x="519" 
d="M492 161l-32 -143q-3 -13 -6 -15.5t-16 -2.5h-377q-11 0 -14 3t-3 14v83l279 477h-161v-80q0 -10 -3.5 -13.5t-13.5 -3.5h-74q-11 0 -14 3t-3 14v171q0 11 3 14t14 3h370q13 0 17 -3.5t4 -16.5v-90l-275 -467h179l18 80q2 15 12 15l11 -2l73 -16q14 -3 14 -12q0 -2 -1 -6
t-1 -6zM387 852l-113 -89q-11 -8 -14 -8t-14 8l-113 89q-12 10 -12 14q0 5 6 14l19 32q8 13 14 13q4 0 14 -6l86 -49l86 49q10 6 14 6q6 0 14 -13l19 -32q6 -9 6 -14q0 -4 -12 -14z" />
    <glyph glyph-name="zcaron" unicode="&#x17e;" horiz-adv-x="463" 
d="M439 115l-43 -102q-6 -13 -13 -13h-333q-10 0 -10 10v75l231 304h-110v-40q0 -13 -7 -13h-86q-7 0 -7 13v131q0 14 14 14h317q17 0 17 -10v-78l-226 -301h145l22 53q3 8 9 8q5 0 12 -3l62 -27q10 -4 10 -10q0 -2 -0.5 -4t-2 -4t-1.5 -3zM359 661l-113 -89q-11 -8 -14 -8
t-14 8l-113 89q-12 10 -12 14q0 5 6 14l19 32q8 13 14 13q4 0 14 -6l86 -49l86 49q10 6 14 6q6 0 14 -13l19 -32q6 -9 6 -14q0 -4 -12 -14z" />
    <glyph glyph-name="florin" unicode="&#x192;" 
d="M335 404l-80 -409q-4 -21 -5.5 -28t-9 -33t-15.5 -39t-23.5 -35t-34 -33t-47 -20t-62.5 -9q-84 0 -84 17q0 2 3 11l20 70q1 6 8 6q1 0 7 -1t15 -2t18 -1q21 0 36.5 7.5t24 15t15.5 28t9 27.5t7 34l78 394h-61q-20 0 -20 12q0 7 1 11l9 48q3 19 22 19h69l14 63
q15 71 35 100q42 60 140 60q38 0 69 -8.5t31 -18.5q0 -2 -1 -5.5t-1 -4.5l-22 -65q-5 -10 -9 -10q-1 0 -10.5 4t-23 8t-26.5 4q-12 0 -21.5 -3t-16.5 -9.5t-11.5 -12t-7.5 -15.5l-4.5 -15t-4 -16t-2.5 -13l-8 -43h103q20 0 20 -12q0 -4 -2 -12l-16 -49q-5 -17 -22 -17h-103z
" />
    <glyph glyph-name="circumflex" unicode="&#x2c6;" horiz-adv-x="335" 
d="M301 609l-19 -32q-8 -13 -14 -13q-4 0 -14 6l-86 49l-86 -49q-10 -6 -14 -6q-6 0 -14 13l-19 32q-6 9 -6 14q0 4 12 14l113 89q11 8 14 8t14 -8l113 -89q12 -10 12 -14q0 -5 -6 -14z" />
    <glyph glyph-name="caron" unicode="&#x2c7;" horiz-adv-x="335" 
d="M295 661l-113 -89q-11 -8 -14 -8t-14 8l-113 89q-12 10 -12 14q0 5 6 14l19 32q8 13 14 13q4 0 14 -6l86 -49l86 49q10 6 14 6q6 0 14 -13l19 -32q6 -9 6 -14q0 -4 -12 -14z" />
    <glyph glyph-name="uni02C9" unicode="&#x2c9;" horiz-adv-x="335" 
d="M290 673v-42q0 -13 -3.5 -16.5t-16.5 -3.5h-205q-12 0 -16 3.5t-4 16.5v42q0 13 3.5 16.5t16.5 3.5h205q13 0 16.5 -3.5t3.5 -16.5z" />
    <glyph glyph-name="breve" unicode="&#x2d8;" horiz-adv-x="335" 
d="M238 722l59 -8q11 -2 11 -13q0 -40 -34 -80.5t-106 -40.5q-39 0 -68 13t-44 33.5t-22 39.5t-7 35q0 11 11 13l59 8q1 0 6 0.5t7 0.5q3 0 5 -4t4 -12.5t4 -14.5q12 -30 45 -30q34 0 44 30l3.5 14t4.5 13.5t5 3.5q1 0 6 -0.5t7 -0.5z" />
    <glyph glyph-name="dotaccent" unicode="&#x2d9;" horiz-adv-x="335" 
d="M246 651q0 -32 -23 -54.5t-55 -22.5t-54.5 22.5t-22.5 54.5q0 33 22.5 55.5t54.5 22.5t55 -23t23 -55z" />
    <glyph glyph-name="ring" unicode="&#x2da;" horiz-adv-x="335" 
d="M273 668q0 -43 -31 -73.5t-74 -30.5t-73.5 30.5t-30.5 73.5q0 44 30.5 74.5t73.5 30.5t74 -30.5t31 -74.5zM168 626q18 0 30.5 12t12.5 30t-12.5 30.5t-30.5 12.5t-30 -12.5t-12 -30.5t12.5 -30t29.5 -12z" />
    <glyph glyph-name="ogonek" unicode="&#x2db;" horiz-adv-x="335" 
d="M245 -108l14 -45q0 -1 1.5 -5t1.5 -6q0 -9 -30 -20.5t-60 -11.5q-43 0 -71 22t-28 61q0 76 89 129h78q-83 -75 -83 -110q0 -27 28 -27q18 0 35 9.5t18 9.5q5 0 7 -6z" />
    <glyph glyph-name="tilde" unicode="&#x2dc;" horiz-adv-x="335" 
d="M268 715l47 -24q7 -5 7 -9q0 -2 -4 -11.5t-12.5 -23.5t-20 -27t-30 -22.5t-38.5 -9.5q-27 0 -56 17.5t-40 17.5q-13 0 -22 -9t-14 -18t-9 -9t-9 3l-47 24q-7 4 -7 8q0 2 3.5 11t11.5 23.5t19.5 27.5t29.5 22.5t39 9.5q28 0 59.5 -17.5t42.5 -17.5q15 0 27 18t16 18
q3 0 7 -2z" />
    <glyph glyph-name="hungarumlaut" unicode="&#x2dd;" horiz-adv-x="335" 
d="M220 677l-115 -104q-9 -9 -14 -9q-6 0 -15 9l-15 13q-10 8 -10 15q0 2 8 14l94 122q9 11 15 11q3 0 14 -8l38 -34q10 -10 10 -14q0 -8 -10 -15zM376 677l-115 -104q-9 -9 -14 -9q-6 0 -15 9l-15 13q-10 8 -10 15q0 2 8 14l94 122q9 11 15 11q3 0 14 -8l38 -34
q10 -10 10 -14q0 -8 -10 -15z" />
    <glyph glyph-name="uni03A9" unicode="&#x3a9;" horiz-adv-x="709" 
d="M179 91v3q-53 47 -89 118.5t-36 159.5q0 133 85.5 224t217.5 91q134 0 215.5 -94t81.5 -216q0 -90 -36.5 -164t-90.5 -119v-3h140v-91h-258v67q56 35 93 107.5t37 179.5q0 98 -49 169t-134 71q-84 0 -135.5 -69t-51.5 -175q0 -100 37.5 -175.5t92.5 -107.5v-67h-259v91
h139z" />
    <glyph glyph-name="uni03BC" unicode="&#x3bc;" horiz-adv-x="574" 
d="M299 -123v-65q0 -8 -2.5 -11t-11.5 -3h-234q-9 0 -11.5 3t-2.5 11v65q0 8 2.5 11t11.5 3h51v510h-51q-9 0 -11.5 3t-2.5 11v65q0 8 2.5 11t11.5 3h164q9 0 11.5 -3t2.5 -11v-308q0 -89 56 -89q42 0 86 41v277h-51q-9 0 -11.5 3t-2.5 11v65q0 8 2.5 11t11.5 3h164
q9 0 11.5 -3t2.5 -11v-302q0 -50 10 -85h42q14 0 14 -14v-65q0 -8 -2.5 -11t-11.5 -3h-133q-7 0 -12 2.5t-8 8t-4.5 10t-4 13.5t-3.5 13q-1 -2 -10 -13t-12.5 -15t-13 -13t-17 -12.5t-20 -7t-25.5 -3.5q-24 0 -58 17v-109h56q9 0 11.5 -3t2.5 -11z" />
    <glyph glyph-name="pi" unicode="&#x3c0;" horiz-adv-x="590" 
d="M566 412h-73v-266q0 -92 13 -146h-109q-17 27 -17 139v273h-148q-4 -94 -23 -219.5t-43 -192.5h-110q25 80 43.5 202t20.5 210q-68 0 -101 -11l-14 75q43 31 158 31h412z" />
    <glyph glyph-name="uni2010" unicode="&#x2010;" horiz-adv-x="370" 
d="M328 292v-73q0 -13 -4 -17t-17 -4h-244q-13 0 -17 4t-4 17v73q0 14 4 17.5t17 3.5h244q13 0 17 -3.5t4 -17.5z" />
    <glyph glyph-name="endash" unicode="&#x2013;" 
d="M515 292v-73q0 -13 -3.5 -17t-17.5 -4h-431q-13 0 -17 4t-4 17v73q0 14 4 17.5t17 3.5h431q14 0 17.5 -3.5t3.5 -17.5z" />
    <glyph glyph-name="emdash" unicode="&#x2014;" horiz-adv-x="1000" 
d="M958 292v-73q0 -13 -4 -17t-17 -4h-874q-13 0 -17 4t-4 17v73q0 14 4 17.5t17 3.5h874q13 0 17 -3.5t4 -17.5z" />
    <glyph glyph-name="quoteleft" unicode="&#x2018;" horiz-adv-x="222" 
d="M208 675l-62 -204q-5 -17 -22 -17h-97q-20 0 -20 11q0 7 5 15l119 223q8 14 14 14l12 -3l38 -13q16 -6 16 -13q0 -4 -3 -13z" />
    <glyph glyph-name="quoteright" unicode="&#x2019;" horiz-adv-x="222" 
d="M210 691l-119 -223q-8 -14 -14 -14l-12 3l-38 13q-16 6 -16 13q0 4 3 13l62 204q5 17 22 17h97q20 0 20 -11q0 -8 -5 -15z" />
    <glyph glyph-name="quotesinglbase" unicode="&#x201a;" horiz-adv-x="222" 
d="M197 99l-119 -223q-8 -14 -14 -14l-12 3l-38 13q-16 6 -16 13q0 4 3 13l62 204q5 17 22 17h97q20 0 20 -11q0 -8 -5 -15z" />
    <glyph glyph-name="quotedblleft" unicode="&#x201c;" horiz-adv-x="500" 
d="M450 675l-62 -204q-5 -17 -22 -17h-97q-20 0 -20 11q0 7 5 15l119 223q8 14 14 14l12 -3l38 -13q16 -6 16 -13q0 -4 -3 -13zM248 675l-62 -204q-5 -17 -22 -17h-97q-20 0 -20 11q0 7 5 15l119 223q8 14 14 14l12 -3l38 -13q16 -6 16 -13q0 -4 -3 -13z" />
    <glyph glyph-name="quotedblright" unicode="&#x201d;" horiz-adv-x="500" 
d="M246 691l-119 -223q-8 -14 -14 -14l-12 3l-38 13q-16 6 -16 13q0 4 3 13l62 204q5 17 22 17h97q20 0 20 -11q0 -8 -5 -15zM448 691l-119 -223q-8 -14 -14 -14l-12 3l-38 13q-16 6 -16 13q0 4 3 13l62 204q5 17 22 17h97q20 0 20 -11q0 -8 -5 -15z" />
    <glyph glyph-name="quotedblbase" unicode="&#x201e;" horiz-adv-x="500" 
d="M250 99l-119 -223q-8 -14 -14 -14l-12 3l-38 13q-16 6 -16 13q0 4 3 13l62 204q5 17 22 17h97q20 0 20 -11q0 -8 -5 -15zM452 99l-119 -223q-8 -14 -14 -14l-12 3l-38 13q-16 6 -16 13q0 4 3 13l62 204q5 17 22 17h97q20 0 20 -11q0 -8 -5 -15z" />
    <glyph glyph-name="dagger" unicode="&#x2020;" 
d="M333 380v-571q0 -13 -4 -17t-17 -4h-68q-14 0 -17.5 3.5t-3.5 17.5v571h-117q-14 0 -17.5 4t-3.5 17v55q0 13 4 16.5t18 3.5h116v189q0 13 3.5 16.5t16.5 3.5h70q13 0 16.5 -3.5t3.5 -16.5v-189h117q13 0 17 -3.5t4 -16.5v-55q0 -13 -4 -17t-17 -4h-117z" />
    <glyph glyph-name="daggerdbl" unicode="&#x2021;" 
d="M333 0v-191q0 -13 -4 -17t-17 -4h-68q-14 0 -17.5 3.5t-3.5 17.5v191h-117q-14 0 -17.5 4t-3.5 17v55q0 13 4 16.5t18 3.5h116v284h-117q-14 0 -17.5 4t-3.5 17v55q0 13 4 16.5t18 3.5h116v189q0 13 3.5 16.5t16.5 3.5h70q13 0 16.5 -3.5t3.5 -16.5v-189h117
q13 0 17 -3.5t4 -16.5v-55q0 -13 -4 -17t-17 -4h-117v-284h117q13 0 17 -3.5t4 -16.5v-55q0 -13 -4 -17t-17 -4h-117z" />
    <glyph glyph-name="bullet" unicode="&#x2022;" horiz-adv-x="500" 
d="M431 360q0 -74 -53.5 -127t-127.5 -53q-75 0 -128 53t-53 127q0 75 53 128.5t128 53.5q74 0 127.5 -53.5t53.5 -128.5z" />
    <glyph glyph-name="ellipsis" unicode="&#x2026;" horiz-adv-x="1000" 
d="M257 90q0 -37 -26.5 -63.5t-63.5 -26.5t-63.5 26t-26.5 64q0 37 26.5 63.5t63.5 26.5t63.5 -26.5t26.5 -63.5zM923 90q0 -37 -26.5 -63.5t-63.5 -26.5t-63.5 26t-26.5 64q0 37 26.5 63.5t63.5 26.5t63.5 -26.5t26.5 -63.5zM590 90q0 -37 -26.5 -63.5t-63.5 -26.5
q-38 0 -64 26t-26 64q0 37 26.5 63.5t63.5 26.5t63.5 -26.5t26.5 -63.5z" />
    <glyph glyph-name="perthousand" unicode="&#x2030;" horiz-adv-x="1185" 
d="M632 58q30 0 39.5 26t9.5 75t-10 75t-39 26t-39 -26t-10 -75t9.5 -75t39.5 -26zM781 159q0 -80 -39.5 -128t-109.5 -48t-109.5 47.5t-39.5 128.5q0 80 39.5 128t109.5 48t109.5 -48t39.5 -128zM586 659l-236 -659q-6 -17 -23 -17h-51q-21 0 -21 10q0 4 4 14l237 662
q6 16 23 16h51q19 0 19 -12q0 -5 -3 -14zM348 492q0 -80 -39.5 -128t-109.5 -48t-109.5 47.5t-39.5 128.5q0 80 39.5 128t109.5 48t109.5 -48t39.5 -128zM199 391q30 0 39.5 26t9.5 75t-10 75t-39 26t-39 -26t-10 -75t9.5 -75t39.5 -26zM1137 159q0 -80 -39.5 -128
t-109.5 -48t-109.5 47.5t-39.5 128.5q0 80 39.5 128t109.5 48t109.5 -48t39.5 -128zM988 58q30 0 39.5 26t9.5 75t-10 75t-39 26t-39 -26t-10 -75t9.5 -75t39.5 -26z" />
    <glyph glyph-name="guilsinglleft" unicode="&#x2039;" horiz-adv-x="352" 
d="M293 37l-50 -31q-12 -6 -14 -6q-5 0 -14 12l-169 224q-6 8 -6 14t6 14l169 219q9 11 14 11q2 0 14 -6l50 -31q13 -8 13 -15q0 -5 -7 -14l-124 -184l124 -178q6 -10 6 -14q0 -8 -12 -15z" />
    <glyph glyph-name="guilsinglright" unicode="&#x203a;" horiz-adv-x="352" 
d="M306 236l-169 -224q-9 -12 -14 -12q-2 0 -14 6l-50 31q-12 7 -12 15q0 4 6 14l124 178l-124 184q-7 9 -7 14q0 7 13 15l50 31q12 6 14 6q5 0 14 -11l169 -219q6 -8 6 -14t-6 -14z" />
    <glyph glyph-name="fraction" unicode="&#x2044;" horiz-adv-x="230" 
d="M276 659l-236 -659q-6 -17 -23 -17h-51q-21 0 -21 10q0 4 4 14l237 662q6 16 23 16h51q19 0 19 -12q0 -5 -3 -14z" />
    <glyph glyph-name="Euro" unicode="&#x20ac;" 
d="M384 276q0 -13 -3.5 -16.5t-16.5 -3.5h-149q10 -88 45 -126t103 -38q27 0 58 7v83q0 10 3.5 13t13.5 3h74q10 0 13.5 -3t3.5 -13v-142q0 -22 -52.5 -39.5t-116.5 -17.5q-119 0 -188.5 71t-83.5 202h-65q-13 0 -16.5 3.5t-3.5 16.5v18q0 13 3.5 16.5t16.5 3.5h61v15
q0 24 1 36h-61q-13 0 -17 4t-4 16v18q0 13 4 16.5t17 3.5h67q19 125 87.5 193.5t177.5 68.5q61 0 113 -19t52 -45v-131q0 -10 -3.5 -13t-13.5 -3h-74q-11 0 -14 3t-3 13v78q-25 9 -58 9q-58 0 -93.5 -35t-46.5 -119h149q13 0 16.5 -3.5t3.5 -16.5v-18q0 -13 -3.5 -16.5
t-16.5 -3.5h-153v-19v-32h153q13 0 16.5 -3.5t3.5 -16.5v-18z" />
    <glyph glyph-name="afii61289" unicode="&#x2113;" horiz-adv-x="504" 
d="M437 167l47 -47q-69 -133 -202 -133q-82 0 -124.5 45t-50.5 118v11q-4 -3 -23.5 -18t-29.5 -23l-29 60q9 7 37.5 30.5t42.5 36.5v247q0 124 48.5 184.5t123.5 60.5q67 0 101.5 -47.5t34.5 -121.5q0 -154 -199 -341v-37q1 -56 27.5 -85.5t66.5 -29.5q74 0 129 90zM214 500
v-168q125 139 125 241q0 86 -58 86q-27 0 -47 -37.5t-20 -121.5z" />
    <glyph glyph-name="trademark" unicode="&#x2122;" horiz-adv-x="704" 
d="M251 428v-18h-153v18q18 2 23.5 2.5t15 5t12 14t2.5 25.5v191q-12 -2 -21 -4.5t-16.5 -8t-11.5 -8t-9 -12.5t-6 -12.5t-6.5 -18t-7.5 -19.5h-18l5 102h234l5 -102h-18q-2 5 -6.5 17.5t-6 16t-5.5 12t-6.5 11.5t-8 8.5t-11.5 8t-14.5 5t-19.5 4.5v-191q0 -16 1.5 -25
t9.5 -13.5t13.5 -5.5t23.5 -3zM647 428v-18h-124v18q15 3 20.5 5.5t10 12t4.5 29.5v184h-2l-84 -249h-16l-73 240h-2v-175q0 -20 3.5 -29.5t8 -12t17.5 -5.5v-18h-98v18q16 3 22 4.5t13 6t9 13t2 23.5v156q0 14 -0.5 20.5t-6 10t-9 4t-18.5 1.5v18h100l55 -181h2l63 181h108
v-18q-14 -2 -17 -2.5t-11 -3t-9 -6.5t-3 -11t-2 -19v-150q0 -30 6.5 -37t30.5 -10z" />
    <glyph glyph-name="Omega" unicode="&#x2126;" horiz-adv-x="709" 
d="M179 91v3q-53 47 -89 118.5t-36 159.5q0 133 85.5 224t217.5 91q134 0 215.5 -94t81.5 -216q0 -90 -36.5 -164t-90.5 -119v-3h140v-91h-258v67q56 35 93 107.5t37 179.5q0 98 -49 169t-134 71q-84 0 -135.5 -69t-51.5 -175q0 -100 37.5 -175.5t92.5 -107.5v-67h-259v91
h139z" />
    <glyph glyph-name="estimated" unicode="&#x212e;" horiz-adv-x="846" 
d="M813 324h-632q-5 0 -5 -4v-191q0 -12 8 -22q102 -104 239 -104q150 0 252 117h56q-54 -63 -135 -99.5t-174 -36.5q-161 0 -275 102.5t-114 247.5t114 248t275 103q162 0 276.5 -103t114.5 -248v-10zM669 349v192q0 14 -9 23q-102 100 -237 100t-238 -103q-9 -9 -9 -24
v-188q0 -6 5 -6h484q4 0 4 6z" />
    <glyph glyph-name="partialdiff" unicode="&#x2202;" horiz-adv-x="563" 
d="M101 619l-33 82q72 56 179 56q113 0 190.5 -97t77.5 -272q0 -180 -73 -290.5t-201 -110.5q-96 0 -149.5 70.5t-53.5 158.5q0 112 61.5 181.5t151.5 69.5q56 0 96 -27.5t56 -55.5h1q1 9 1 35q0 103 -48.5 174.5t-123.5 71.5q-70 0 -132 -46zM251 80h2q55 0 93 63t47 146
q-10 31 -42.5 60t-77.5 29q-52 0 -88 -49t-36 -116q0 -57 28.5 -95t73.5 -38z" />
    <glyph glyph-name="uni2206" unicode="&#x2206;" horiz-adv-x="650" 
d="M27 0v67l234 625h134l227 -624v-68h-595zM144 90h356l-117 307q-7 21 -29.5 86.5t-28.5 88.5h-4q-4 -18 -25 -77.5t-28 -82.5z" />
    <glyph glyph-name="product" unicode="&#x220f;" horiz-adv-x="709" 
d="M685 575h-104v-668h-111v668h-231v-668h-112v668h-103v101h661v-101z" />
    <glyph glyph-name="summation" unicode="&#x2211;" horiz-adv-x="554" 
d="M534 -93h-512v71l247 313l-237 307v78h485v-95h-332v-4l211 -269l-232 -295v-3h370v-103z" />
    <glyph glyph-name="minus" unicode="&#x2212;" 
d="M505 290v-66q0 -10 -3.5 -13.5t-13.5 -3.5h-420q-10 0 -13.5 3.5t-3.5 13.5v66q0 10 3.5 13.5t13.5 3.5h420q10 0 13.5 -3.5t3.5 -13.5z" />
    <glyph glyph-name="uni2215" unicode="&#x2215;" horiz-adv-x="230" 
d="M276 659l-236 -659q-6 -17 -23 -17h-51q-21 0 -21 10q0 4 4 14l237 662q6 16 23 16h51q19 0 19 -12q0 -5 -3 -14z" />
    <glyph glyph-name="uni2219" unicode="&#x2219;" 
d="M354 256q0 -31 -22.5 -53.5t-53.5 -22.5q-32 0 -54.5 22.5t-22.5 53.5q0 32 22.5 54.5t54.5 22.5q31 0 53.5 -22.5t22.5 -54.5z" />
    <glyph glyph-name="radical" unicode="&#x221a;" horiz-adv-x="582" 
d="M589 809l-223 -947h-91l-151 430l-73 -29l-20 63l160 64l110 -324q4 -15 10.5 -42t8.5 -36l2 -1q7 49 15 84l173 738h79z" />
    <glyph glyph-name="infinity" unicode="&#x221e;" horiz-adv-x="764" 
d="M716 280v-1q0 -75 -46.5 -120.5t-109.5 -45.5q-45 0 -87 26t-90 87q-45 -55 -86.5 -84t-96.5 -29q-62 0 -107.5 46t-45.5 116q0 72 46 118.5t115 46.5q51 0 93 -28.5t86 -82.5q33 37 48.5 53.5t53 37t77.5 20.5q65 -1 107.5 -45t42.5 -115zM208 175h2q20 0 38.5 7.5
t39 26t29.5 28t31 35.5q-23 30 -32 41t-29 31t-39.5 27.5t-43.5 7.5q-42 0 -67 -30t-25 -75q0 -41 27.5 -70t68.5 -29zM559 379h-1q-17 0 -33.5 -5.5t-34 -21t-25 -22t-27.5 -29.5l-19 -23q47 -58 77.5 -80.5t66.5 -22.5q39 0 63.5 31t24.5 69q0 46 -26 75t-66 29z" />
    <glyph glyph-name="integral" unicode="&#x222b;" horiz-adv-x="379" 
d="M360 822l-13 -77q-16 9 -36 9q-32 0 -50 -24q-28 -34 -28 -165q0 -76 7 -229.5t7 -240.5q0 -129 -37 -194q-37 -66 -120 -66q-43 0 -73 17l15 79q25 -11 43 -11q30 0 44 20q30 38 30 154q0 88 -7.5 245t-7.5 237q0 84 13.5 133.5t44.5 81.5q39 43 109 43q30 0 59 -12z
" />
    <glyph glyph-name="approxequal" unicode="&#x2248;" horiz-adv-x="548" 
d="M466 435l41 -38q-54 -99 -133 -99q-43 0 -112 40q-53 33 -87 33q-21 0 -39.5 -11.5t-29 -24t-26.5 -35.5l-41 37q23 44 60.5 71t81.5 27q10 0 19 -1t18.5 -4t15.5 -4.5t16 -6.5l13 -6.5t13 -8t11 -6.5q5 -3 19 -11t19 -10.5t15 -6.5t18 -5.5t17 -1.5q27 0 48 18t43 54z
M466 255l41 -38q-54 -98 -133 -98q-42 0 -112 40q-55 33 -87 33q-21 0 -39.5 -11.5t-29 -24t-26.5 -35.5l-41 37q23 44 60.5 71t81.5 27q12 0 23.5 -2t19.5 -4t18.5 -7t15.5 -7.5t15.5 -8.5t13.5 -7q3 -2 17 -10t18.5 -10.5t15 -7.5t19 -6.5t18.5 -1.5q27 0 47.5 17t43.5 54
z" />
    <glyph glyph-name="notequal" unicode="&#x2260;" horiz-adv-x="548" 
d="M399 497l-40 -89h140v-66h-165l-61 -135h226v-66h-252l-50 -113l-52 22l41 91h-138v66h164l60 135h-224v66h249l50 111z" />
    <glyph glyph-name="lessequal" unicode="&#x2264;" horiz-adv-x="548" 
d="M497 95l-444 219v71l444 218v-77l-377 -175v-2l377 -177v-77zM500 -9h-451v67h451v-67z" />
    <glyph glyph-name="greaterequal" unicode="&#x2265;" horiz-adv-x="548" 
d="M55 603l443 -218v-71l-443 -219v77l376 177v2l-376 175v77zM499 -9h-449v67h449v-67z" />
    <glyph glyph-name="lozenge" unicode="&#x25ca;" horiz-adv-x="582" 
d="M531 337l-198 -384h-89l-194 384l198 386h89zM432 335l-121 242q-12 30 -19 55h-3q-6 -24 -19 -55l-121 -237l122 -246q14 -33 17 -52h4q13 41 18 51z" />
    <glyph glyph-name="fi" unicode="&#xfb01;" horiz-adv-x="667" 
d="M590 642q0 -34 -24 -58.5t-58 -24.5t-58.5 24.5t-24.5 58.5t24 58t59 24q34 0 58 -24t24 -58zM650 79v-65q0 -8 -2.5 -11t-11.5 -3h-243q-9 0 -11.5 3t-2.5 11v65q0 8 2.5 11t11.5 3h52v308h-194v-308h45q13 0 17 -4t4 -17v-51q0 -13 -4 -17t-17 -4h-233q-13 0 -17 4
t-4 17v51q0 13 4 17t17 4h61v308h-71q-13 0 -17 4t-4 17v51q0 13 4 17t17 4h71v41q0 189 160 189q38 0 80 -11t42 -25q0 -3 -2 -9l-18 -70q-2 -10 -9 -10q-2 0 -25 8.5t-45 8.5q-26 0 -38.5 -11.5t-15 -26t-2.5 -43.5v-41h307q9 0 11.5 -3t2.5 -11v-387h64q9 0 11.5 -3
t2.5 -11z" />
    <glyph glyph-name="fl" unicode="&#xfb02;" horiz-adv-x="667" 
d="M251 401v-308h68q13 0 17 -4t4 -17v-51q0 -13 -4 -17t-17 -4h-256q-13 0 -17 4t-4 17v51q0 13 4 17t17 4h61v308h-71q-13 0 -17 4t-4 17v51q0 13 4 17t17 4h71v41q0 189 160 189q93 0 167 -29l105 22q9 0 11.5 -3t2.5 -11v-545q0 -21 1 -31t7.5 -19.5t19.5 -9.5
q12 0 25 4.5t14 4.5q7 0 8 -6l20 -82q2 -6 2 -8q0 -10 -32.5 -19t-68.5 -9q-30 0 -52 7t-35 23.5t-20.5 31t-11 41.5t-4 43t-0.5 47v418q-4 1 -17 6t-24 7.5t-36.5 5.5t-58.5 3q-26 0 -38.5 -11.5t-15 -26t-2.5 -43.5v-41h114q17 0 17 -10q0 -2 -2 -10l-14 -59
q-3 -14 -19 -14h-96z" />
    <glyph glyph-name="a.superior" horiz-adv-x="481" 
d="M404 397v-42q0 -14 -15 -14h-89q-4 0 -7.5 1t-6 3.5t-4.5 4t-3.5 5.5t-2 5.5t-1.5 6.5l-1 5q-1 -1 -4 -4.5t-5 -5t-5.5 -4.5t-6 -5t-7 -5t-8.5 -5t-9.5 -4t-11 -3t-12.5 -2t-14 -1q-47 0 -77 27.5t-30 74.5q0 24 8.5 43t19 31t31 21t32.5 12.5t36 6t30 3t24 0.5v17
q0 26 -9 36t-38 10q-25 0 -55 -7.5t-33 -7.5q-4 0 -6 6l-14 41q-2 6 -2 7q0 11 39 21t82 10q73 0 99.5 -28.5t26.5 -78.5v-117q0 -23 6 -50h28q15 0 15 -14zM265 417v80q-91 0 -91 -56q0 -20 12 -31.5t31 -11.5q26 0 48 19z" />
    <glyph glyph-name="o.superior" horiz-adv-x="444" 
d="M371 509q0 -80 -39.5 -128t-109.5 -48t-109.5 47.5t-39.5 128.5q0 80 39.5 128t109.5 48t109.5 -48t39.5 -128zM222 408q30 0 39.5 26t9.5 75t-10 75t-39 26t-39 -26t-10 -75t9.5 -75t39.5 -26z" />
    <glyph glyph-name="one.superior" horiz-adv-x="370" 
d="M311 315v-30q0 -11 -4 -14.5t-15 -3.5h-188q-11 0 -15 3.5t-4 14.5v30q0 10 4 13.5t15 3.5h56v231l-52 -26q-8 -4 -12 -4q-6 0 -13 11l-17 26q-5 8 -5 11q0 4 11 13l115 74h45q11 0 14.5 -3.5t3.5 -13.5v-319h42q11 0 15 -3.5t4 -13.5z" />
    <glyph glyph-name="two.superior" horiz-adv-x="370" 
d="M312 324v-39q0 -11 -3.5 -14.5t-14.5 -3.5h-231q-14 0 -14 16q0 62 20 100q16 30 44.5 54.5t52.5 38t42.5 35t18.5 47.5q0 45 -46 45q-20 0 -33 -9t-17.5 -20.5t-10.5 -20.5t-13 -9q-6 0 -12 3l-38 13q-11 2 -11 13q0 30 37.5 67.5t104.5 37.5q59 0 94 -30t35 -87
q0 -26 -6.5 -47t-22.5 -38.5t-27 -27t-36 -26.5t-33 -23q-41 -31 -43 -57h145q11 0 14.5 -3.5t3.5 -14.5z" />
    <glyph glyph-name="three.superior" horiz-adv-x="370" 
d="M89 574l-34 29q-6 4 -6 10q0 9 14 23.5t43.5 28t63.5 13.5q57 0 94 -29.5t37 -79.5q0 -11 -1 -20t-4.5 -16.5t-5.5 -12.5t-8.5 -11.5t-9 -8.5t-11 -8.5t-10.5 -8.5q15 -9 21 -13t18.5 -16t18 -29.5t5.5 -41.5q0 -58 -44 -92t-107 -34q-39 0 -83 12t-44 26q0 1 0.5 3
t1.5 4.5t1 3.5l12 40q3 10 11 10q2 0 33 -12t61 -12q68 0 68 55q0 53 -77 53h-19q-11 0 -15 3.5t-4 13.5v40q0 11 4 14.5t15 3.5h20q63 0 63 48q0 18 -12.5 29t-32.5 11q-19 0 -32.5 -8.5t-21.5 -17t-13 -8.5t-10 5z" />
    </font>
</defs>
</svg>
